<?xml version="1.0" encoding="UTF-8"?>
<svg id="Layer_1" data-name="Layer 1" xmlns="http://www.w3.org/2000/svg" xmlns:xlink="http://www.w3.org/1999/xlink" viewBox="0 0 3000 2000">
  <defs>
    <style>
      .cls-1 {
        clip-path: url(#clippath-6);
      }

      .cls-2 {
        clip-path: url(#clippath-7);
      }

      .cls-3 {
        clip-path: url(#clippath-4);
      }

      .cls-4 {
        fill: url(#linear-gradient-2);
      }

      .cls-5 {
        fill: #808083;
      }

      .cls-6 {
        fill: url(#linear-gradient-10);
      }

      .cls-7 {
        fill: #dddede;
      }

      .cls-8 {
        clip-path: url(#clippath-9);
      }

      .cls-9 {
        fill: #c6d6dc;
      }

      .cls-10 {
        clip-path: url(#clippath-10);
      }

      .cls-11 {
        clip-path: url(#clippath-11);
      }

      .cls-12 {
        fill: none;
      }

      .cls-13 {
        fill: url(#linear-gradient-4);
      }

      .cls-14 {
        fill: url(#radial-gradient);
      }

      .cls-15 {
        fill: #f0f9fd;
      }

      .cls-16 {
        fill: url(#radial-gradient-3);
      }

      .cls-17 {
        fill: #f5921d;
      }

      .cls-18 {
        fill: url(#linear-gradient-3);
      }

      .cls-19 {
        clip-path: url(#clippath-1);
      }

      .cls-20 {
        fill: url(#linear-gradient-5);
      }

      .cls-21 {
        fill: #899195;
      }

      .cls-22 {
        fill: #231f20;
      }

      .cls-23 {
        clip-path: url(#clippath-5);
      }

      .cls-24 {
        clip-path: url(#clippath-8);
      }

      .cls-25 {
        fill: url(#linear-gradient-8);
      }

      .cls-26 {
        fill: #fffdfc;
      }

      .cls-27 {
        fill: #514f51;
      }

      .cls-28 {
        clip-path: url(#clippath-3);
      }

      .cls-29 {
        fill: #cbcbcb;
      }

      .cls-30 {
        fill: url(#radial-gradient-2);
      }

      .cls-31 {
        fill: #e4e5e6;
      }

      .cls-32 {
        fill: url(#radial-gradient-4);
      }

      .cls-33 {
        fill: url(#linear-gradient-7);
      }

      .cls-34 {
        fill: url(#linear-gradient-9);
      }

      .cls-35 {
        fill: url(#linear-gradient-6);
      }

      .cls-36 {
        fill: #fc1d1e;
      }

      .cls-37 {
        fill: #414042;
      }

      .cls-38 {
        fill: #a5a7aa;
      }

      .cls-39 {
        fill: #ebc794;
      }

      .cls-40 {
        clip-path: url(#clippath-2);
      }

      .cls-41 {
        fill: #e3f6fd;
      }

      .cls-42 {
        fill: #84aab6;
      }

      .cls-43 {
        fill: url(#linear-gradient);
      }

      .cls-44 {
        clip-path: url(#clippath);
      }

      .cls-45 {
        fill: #dedcdb;
      }
    </style>
    <clipPath id="clippath">
      <rect class="cls-12" x="1944.54" y="1016.66" width="369" height="361"/>
    </clipPath>
    <clipPath id="clippath-1">
      <path class="cls-12" d="M2129.02,1377.59c96.79,0,176.12-74.79,183.32-169.74.36-4.66.54-9.36.54-14.11,0-73.59-43.23-137.08-105.69-166.46-4.88-1.52-9.93-2.9-15.14-4.12-17.67-4.14-37.3-6.46-59.16-6.46-9.43,0-19.27.43-29.54,1.33-11.48,1.01-22.26,2.75-32.39,5.13-11.71,2.73-22.54,6.31-32.57,10.58-55.67,31.6-93.23,91.41-93.23,160,0,12.31,1.21,24.34,3.52,35.98,16.73,84.31,91.11,147.87,180.34,147.87M2129.02,1060.78c73.44,0,132.96,59.52,132.96,132.96s-59.53,132.96-132.96,132.96-132.96-59.53-132.96-132.96,59.53-132.96,132.96-132.96Z"/>
    </clipPath>
    <clipPath id="clippath-2">
      <path class="cls-12" d="M2129.02,1377.59c96.79,0,176.12-74.79,183.32-169.74.36-4.66.54-9.36.54-14.11,0-73.59-43.23-137.08-105.69-166.46-4.88-1.52-9.93-2.9-15.14-4.12-17.67-4.14-37.3-6.46-59.16-6.46-9.43,0-19.27.43-29.54,1.33-11.48,1.01-22.26,2.75-32.39,5.13-11.71,2.73-22.54,6.31-32.57,10.58-55.67,31.6-93.23,91.41-93.23,160,0,12.31,1.21,24.34,3.52,35.98,16.73,84.31,91.11,147.87,180.34,147.87M2129.02,1060.78c73.44,0,132.96,59.52,132.96,132.96s-59.53,132.96-132.96,132.96-132.96-59.53-132.96-132.96,59.53-132.96,132.96-132.96Z"/>
    </clipPath>
    <radialGradient id="radial-gradient" cx="-4.53" cy="2011.34" fx="-4.53" fy="2011.34" r="183.85" gradientTransform="translate(2124.49 3205.08) rotate(-180)" gradientUnits="userSpaceOnUse">
      <stop offset="0" stop-color="#6d6e71"/>
      <stop offset=".06" stop-color="#6c6d70"/>
      <stop offset=".09" stop-color="#6c6c6f"/>
      <stop offset=".12" stop-color="#6b6c6f"/>
      <stop offset=".14" stop-color="#6a6b6e"/>
      <stop offset=".17" stop-color="#696a6d"/>
      <stop offset=".19" stop-color="#69696c"/>
      <stop offset=".2" stop-color="#68696c"/>
      <stop offset=".21" stop-color="#68686b"/>
      <stop offset=".23" stop-color="#67686b"/>
      <stop offset=".24" stop-color="#67676a"/>
      <stop offset=".25" stop-color="#66676a"/>
      <stop offset=".26" stop-color="#666669"/>
      <stop offset=".27" stop-color="#656669"/>
      <stop offset=".28" stop-color="#656568"/>
      <stop offset=".29" stop-color="#656568"/>
      <stop offset=".29" stop-color="#646567"/>
      <stop offset=".3" stop-color="#646467"/>
      <stop offset=".31" stop-color="#636466"/>
      <stop offset=".32" stop-color="#636366"/>
      <stop offset=".32" stop-color="#626365"/>
      <stop offset=".33" stop-color="#626265"/>
      <stop offset=".34" stop-color="#626265"/>
      <stop offset=".35" stop-color="#616164"/>
      <stop offset=".36" stop-color="#616163"/>
      <stop offset=".36" stop-color="#606063"/>
      <stop offset=".37" stop-color="#606062"/>
      <stop offset=".38" stop-color="#5f5f62"/>
      <stop offset=".39" stop-color="#5f5f61"/>
      <stop offset=".39" stop-color="#5e5e61"/>
      <stop offset=".4" stop-color="#5e5e60"/>
      <stop offset=".41" stop-color="#5d5d60"/>
      <stop offset=".42" stop-color="#5d5d5f"/>
      <stop offset=".43" stop-color="#5c5c5f"/>
      <stop offset=".43" stop-color="#5c5b5e"/>
      <stop offset=".44" stop-color="#5b5b5d"/>
      <stop offset=".45" stop-color="#5a5a5d"/>
      <stop offset=".46" stop-color="#5a5a5c"/>
      <stop offset=".46" stop-color="#59595b"/>
      <stop offset=".47" stop-color="#59585b"/>
      <stop offset=".48" stop-color="#58585a"/>
      <stop offset=".49" stop-color="#58575a"/>
      <stop offset=".5" stop-color="#575759"/>
      <stop offset=".5" stop-color="#575658"/>
      <stop offset=".51" stop-color="#565658"/>
      <stop offset=".51" stop-color="#565558"/>
      <stop offset=".52" stop-color="#565557"/>
      <stop offset=".52" stop-color="#555557"/>
      <stop offset=".52" stop-color="#555457"/>
      <stop offset=".53" stop-color="#555456"/>
      <stop offset=".53" stop-color="#545456"/>
      <stop offset=".54" stop-color="#545356"/>
      <stop offset=".54" stop-color="#545355"/>
      <stop offset=".54" stop-color="#535355"/>
      <stop offset=".55" stop-color="#535255"/>
      <stop offset=".55" stop-color="#535254"/>
      <stop offset=".55" stop-color="#525254"/>
      <stop offset=".56" stop-color="#525154"/>
      <stop offset=".56" stop-color="#525153"/>
      <stop offset=".57" stop-color="#515153"/>
      <stop offset=".57" stop-color="#515053"/>
      <stop offset=".57" stop-color="#515052"/>
      <stop offset=".58" stop-color="#505052"/>
      <stop offset=".58" stop-color="#504f51"/>
      <stop offset=".59" stop-color="#504f51"/>
      <stop offset=".59" stop-color="#4f4e51"/>
      <stop offset=".59" stop-color="#4f4e50"/>
      <stop offset=".6" stop-color="#4f4e50"/>
      <stop offset=".6" stop-color="#4e4d50"/>
      <stop offset=".61" stop-color="#4e4d4f"/>
      <stop offset=".61" stop-color="#4e4d4f"/>
      <stop offset=".61" stop-color="#4d4c4e"/>
      <stop offset=".62" stop-color="#4d4c4e"/>
      <stop offset=".62" stop-color="#4d4b4e"/>
      <stop offset=".62" stop-color="#4c4b4d"/>
      <stop offset=".63" stop-color="#4c4b4d"/>
      <stop offset=".64" stop-color="#4b4a4c"/>
      <stop offset=".64" stop-color="#4a494b"/>
      <stop offset=".65" stop-color="#4a484a"/>
      <stop offset=".66" stop-color="#494749"/>
      <stop offset=".67" stop-color="#484749"/>
      <stop offset=".68" stop-color="#474648"/>
      <stop offset=".68" stop-color="#474547"/>
      <stop offset=".69" stop-color="#464446"/>
      <stop offset=".7" stop-color="#454345"/>
      <stop offset=".71" stop-color="#444344"/>
      <stop offset=".71" stop-color="#434244"/>
      <stop offset=".72" stop-color="#434143"/>
      <stop offset=".73" stop-color="#424042"/>
      <stop offset=".74" stop-color="#413f41"/>
      <stop offset=".75" stop-color="#403e40"/>
      <stop offset=".75" stop-color="#403e3f"/>
      <stop offset=".76" stop-color="#3f3d3f"/>
      <stop offset=".76" stop-color="#3f3d3e"/>
      <stop offset=".77" stop-color="#3e3c3e"/>
      <stop offset=".77" stop-color="#3e3c3e"/>
      <stop offset=".77" stop-color="#3e3b3d"/>
      <stop offset=".78" stop-color="#3d3b3d"/>
      <stop offset=".78" stop-color="#3d3a3c"/>
      <stop offset=".79" stop-color="#3c3a3c"/>
      <stop offset=".79" stop-color="#3c3a3b"/>
      <stop offset=".79" stop-color="#3b393b"/>
      <stop offset=".8" stop-color="#3b393a"/>
      <stop offset=".8" stop-color="#3b383a"/>
      <stop offset=".8" stop-color="#3a3839"/>
      <stop offset=".81" stop-color="#3a3739"/>
      <stop offset=".81" stop-color="#393738"/>
      <stop offset=".82" stop-color="#393638"/>
      <stop offset=".82" stop-color="#383537"/>
      <stop offset=".83" stop-color="#373436"/>
      <stop offset=".84" stop-color="#363335"/>
      <stop offset=".85" stop-color="#353234"/>
      <stop offset=".86" stop-color="#343133"/>
      <stop offset=".86" stop-color="#333032"/>
      <stop offset=".87" stop-color="#333031"/>
      <stop offset=".88" stop-color="#322f31"/>
      <stop offset=".88" stop-color="#322f30"/>
      <stop offset=".88" stop-color="#312e30"/>
      <stop offset=".89" stop-color="#312e2f"/>
      <stop offset=".89" stop-color="#302d2f"/>
      <stop offset=".89" stop-color="#302d2e"/>
      <stop offset=".9" stop-color="#2f2c2e"/>
      <stop offset=".9" stop-color="#2f2c2d"/>
      <stop offset=".91" stop-color="#2e2b2d"/>
      <stop offset=".91" stop-color="#2e2b2c"/>
      <stop offset=".91" stop-color="#2e2a2c"/>
      <stop offset=".92" stop-color="#2d2a2b"/>
      <stop offset=".92" stop-color="#2d292a"/>
      <stop offset=".93" stop-color="#2c292a"/>
      <stop offset=".93" stop-color="#2c2829"/>
      <stop offset=".93" stop-color="#2b2829"/>
      <stop offset=".94" stop-color="#2b2728"/>
      <stop offset=".94" stop-color="#2a2728"/>
      <stop offset=".95" stop-color="#2a2627"/>
      <stop offset=".95" stop-color="#292627"/>
      <stop offset=".95" stop-color="#292526"/>
      <stop offset=".96" stop-color="#282526"/>
      <stop offset=".96" stop-color="#282425"/>
      <stop offset=".96" stop-color="#272425"/>
      <stop offset=".97" stop-color="#272324"/>
      <stop offset=".97" stop-color="#262224"/>
      <stop offset=".98" stop-color="#262223"/>
      <stop offset=".98" stop-color="#252122"/>
      <stop offset=".98" stop-color="#252122"/>
      <stop offset=".99" stop-color="#242021"/>
      <stop offset=".99" stop-color="#242021"/>
      <stop offset="1" stop-color="#231f20"/>
      <stop offset="1" stop-color="#231f20"/>
    </radialGradient>
    <clipPath id="clippath-3">
      <rect class="cls-12" x="2017.54" y="1081.66" width="223" height="224"/>
    </clipPath>
    <clipPath id="clippath-4">
      <path class="cls-12" d="M2129.02,1305.12c61.51,0,111.38-49.87,111.38-111.38s-49.87-111.38-111.38-111.38-111.38,49.87-111.38,111.38,49.86,111.38,111.38,111.38M2129.02,1261.42h-.72s-.08-.01-.12-.01h-.52s-.08-.01-.12-.01h-.3s-.08,0-.12,0h-.22s-.05,0-.08-.01h-.23c-.06,0-.12,0-.18,0h-.09s-.08-.01-.12-.01h-.09s-.08,0-.12,0h-.09s-.08,0-.12-.01h-.09s-.07,0-.11,0h-.1s-.07-.01-.11-.01h-.1s-.07-.01-.11-.01h-.1s-.07,0-.11,0c-.03,0-.06,0-.09-.01h-.11s-.06,0-.09,0c-.04,0-.09,0-.12-.01h-.08c-.07,0-.14,0-.2-.02h-.04c-.06,0-.11-.01-.17-.01-.03,0-.05,0-.08,0-.04,0-.09,0-.13-.01h-.09s-.08,0-.12,0c-.03,0-.06-.01-.09-.01-.04,0-.08,0-.12,0-.03,0-.06,0-.09-.01-.04,0-.08,0-.12,0h-.09s-.08-.01-.12-.01c-.03-.01-.06-.01-.09-.01-.04,0-.08,0-.12,0-.03-.01-.06-.01-.09-.01-.04,0-.08,0-.12,0-.03-.01-.05-.01-.08-.01-.04,0-.09,0-.13,0-.02,0-.05-.01-.07-.01-.05,0-.09,0-.14,0-.02-.01-.05-.01-.07-.01-.07-.01-.14-.01-.21-.02h0c-.06-.01-.13-.02-.2-.02-.02-.01-.04-.01-.07-.01-.05,0-.09,0-.14-.02h-.07s-.09-.01-.13-.02c-.02,0-.05,0-.08-.01-.04,0-.09,0-.13,0-.03-.01-.05-.01-.08-.01-.04,0-.08,0-.12-.02-.03,0-.05,0-.08,0-.04,0-.08-.01-.12-.01-.03-.01-.05-.01-.08-.01-.04,0-.08,0-.12-.02-.02,0-.05,0-.08,0-.04,0-.09-.01-.12-.01-.03,0-.05,0-.08,0-.05-.01-.09-.02-.14-.02-.02-.01-.04-.01-.05-.01-.06-.01-.13-.02-.19-.03h-.01c-.14-.02-.28-.04-.42-.06h-.02c-.06-.01-.12-.02-.18-.03h-.05c-.05,0-.11-.02-.16-.03h-.06s-.09-.02-.14-.03c-.02,0-.04,0-.06-.01-.05,0-.09,0-.14-.02-.02,0-.04,0-.06,0-.05-.01-.1-.01-.15-.02-.02,0-.04-.01-.05-.01-.05-.01-.1-.02-.16-.02-.02-.01-.03-.01-.04-.01-.05,0-.11-.02-.17-.03,0,0-.02,0-.03-.01-.41-.06-.83-.14-1.24-.21h-.01c-.07-.02-.13-.03-.2-.04h-.02c-.06-.02-.12-.03-.18-.04h-.03c-.06-.02-.12-.03-.18-.04h-.02c-.07-.02-.13-.03-.2-.04h0c-21.31-4.22-39.02-18.45-48.03-37.58,0-.01-.01-.02-.02-.03-.01-.03-.02-.05-.04-.08-3.1-6.61-5.16-13.81-5.98-21.38-.27-2.41-.39-4.85-.39-7.33,0-17.51,6.66-33.47,17.58-45.49,12.38-13.63,30.24-22.18,50.1-22.18,31.67,0,58.26,21.75,65.64,51.13,0,0,0,0,0,0,0,.03.01.05.02.07,1.32,5.27,2.02,10.79,2.02,16.46,0,35.99-28.07,65.4-63.5,67.56-.02,0-.03,0-.05.01-.14,0-.28,0-.42.02h-.02c-.28.02-.56.03-.84.04h-.02c-.34.02-.69.03-1.04.04-.6.01-1.2.02-1.8.02Z"/>
    </clipPath>
    <clipPath id="clippath-5">
      <path class="cls-12" d="M2129.02,1305.12c61.51,0,111.38-49.87,111.38-111.38s-49.87-111.38-111.38-111.38-111.38,49.87-111.38,111.38,49.86,111.38,111.38,111.38M2129.02,1261.42h-.72s-.08-.01-.12-.01h-.52s-.08-.01-.12-.01h-.3s-.08,0-.12,0h-.22s-.05,0-.08-.01h-.23c-.06,0-.12,0-.18,0h-.09s-.08-.01-.12-.01h-.09s-.08,0-.12,0h-.09s-.08,0-.12-.01h-.09s-.07,0-.11,0h-.1s-.07-.01-.11-.01h-.1s-.07-.01-.11-.01h-.1s-.07,0-.11,0c-.03,0-.06,0-.09-.01h-.11s-.06,0-.09,0c-.04,0-.09,0-.12-.01h-.08c-.07,0-.14,0-.2-.02h-.04c-.06,0-.11-.01-.17-.01-.03,0-.05,0-.08,0-.04,0-.09,0-.13-.01h-.09s-.08,0-.12,0c-.03,0-.06-.01-.09-.01-.04,0-.08,0-.12,0-.03,0-.06,0-.09-.01-.04,0-.08,0-.12,0h-.09s-.08-.01-.12-.01c-.03-.01-.06-.01-.09-.01-.04,0-.08,0-.12,0-.03-.01-.06-.01-.09-.01-.04,0-.08,0-.12,0-.03-.01-.05-.01-.08-.01-.04,0-.09,0-.13,0-.02,0-.05-.01-.07-.01-.05,0-.09,0-.14,0-.02-.01-.05-.01-.07-.01-.07-.01-.14-.01-.21-.02h0c-.06-.01-.13-.02-.2-.02-.02-.01-.04-.01-.07-.01-.05,0-.09,0-.14-.02h-.07s-.09-.01-.13-.02c-.02,0-.05,0-.08-.01-.04,0-.09,0-.13,0-.03-.01-.05-.01-.08-.01-.04,0-.08,0-.12-.02-.03,0-.05,0-.08,0-.04,0-.08-.01-.12-.01-.03-.01-.05-.01-.08-.01-.04,0-.08,0-.12-.02-.02,0-.05,0-.08,0-.04,0-.09-.01-.12-.01-.03,0-.05,0-.08,0-.05-.01-.09-.02-.14-.02-.02-.01-.04-.01-.05-.01-.06-.01-.13-.02-.19-.03h-.01c-.14-.02-.28-.04-.42-.06h-.02c-.06-.01-.12-.02-.18-.03h-.05c-.05,0-.11-.02-.16-.03h-.06s-.09-.02-.14-.03c-.02,0-.04,0-.06-.01-.05,0-.09,0-.14-.02-.02,0-.04,0-.06,0-.05-.01-.1-.01-.15-.02-.02,0-.04-.01-.05-.01-.05-.01-.1-.02-.16-.02-.02-.01-.03-.01-.04-.01-.05,0-.11-.02-.17-.03,0,0-.02,0-.03-.01-.41-.06-.83-.14-1.24-.21h-.01c-.07-.02-.13-.03-.2-.04h-.02c-.06-.02-.12-.03-.18-.04h-.03c-.06-.02-.12-.03-.18-.04h-.02c-.07-.02-.13-.03-.2-.04h0c-21.31-4.22-39.02-18.45-48.03-37.58,0-.01-.01-.02-.02-.03-.01-.03-.02-.05-.04-.08-3.1-6.61-5.16-13.81-5.98-21.38-.27-2.41-.39-4.85-.39-7.33,0-17.51,6.66-33.47,17.58-45.49,12.38-13.63,30.24-22.18,50.1-22.18,31.67,0,58.26,21.75,65.64,51.13,0,0,0,0,0,0,0,.03.01.05.02.07,1.32,5.27,2.02,10.79,2.02,16.46,0,35.99-28.07,65.4-63.5,67.56-.02,0-.03,0-.05.01-.14,0-.28,0-.42.02h-.02c-.28.02-.56.03-.84.04h-.02c-.34.02-.69.03-1.04.04-.6.01-1.2.02-1.8.02Z"/>
    </clipPath>
    <radialGradient id="radial-gradient-2" cx="-4.54" cy="2011.34" fx="-4.54" fy="2011.34" r="111.38" gradientTransform="translate(2124.49 3205.08) rotate(-180)" gradientUnits="userSpaceOnUse">
      <stop offset="0" stop-color="#fff"/>
      <stop offset=".5" stop-color="#fff"/>
      <stop offset=".62" stop-color="#fff"/>
      <stop offset=".72" stop-color="#fefefe"/>
      <stop offset=".73" stop-color="#fdfdfd"/>
      <stop offset=".75" stop-color="#fcfcfc"/>
      <stop offset=".76" stop-color="#fcfcfc"/>
      <stop offset=".76" stop-color="#fbfbfb"/>
      <stop offset=".77" stop-color="#fbfbfb"/>
      <stop offset=".77" stop-color="#fbfbfb"/>
      <stop offset=".77" stop-color="#fafafa"/>
      <stop offset=".78" stop-color="#fafafa"/>
      <stop offset=".78" stop-color="#f9f9f9"/>
      <stop offset=".79" stop-color="#f9f8f8"/>
      <stop offset=".79" stop-color="#f8f8f8"/>
      <stop offset=".79" stop-color="#f7f7f7"/>
      <stop offset=".8" stop-color="#f7f6f6"/>
      <stop offset=".8" stop-color="#f6f6f6"/>
      <stop offset=".8" stop-color="#f5f5f5"/>
      <stop offset=".81" stop-color="#f4f4f4"/>
      <stop offset=".81" stop-color="#f3f3f3"/>
      <stop offset=".82" stop-color="#f2f2f2"/>
      <stop offset=".82" stop-color="#f1f1f1"/>
      <stop offset=".82" stop-color="#f0eff0"/>
      <stop offset=".83" stop-color="#eee"/>
      <stop offset=".83" stop-color="#ededed"/>
      <stop offset=".84" stop-color="#ecebeb"/>
      <stop offset=".84" stop-color="#eaeaea"/>
      <stop offset=".84" stop-color="#e9e8e8"/>
      <stop offset=".85" stop-color="#e7e6e7"/>
      <stop offset=".85" stop-color="#e5e5e5"/>
      <stop offset=".86" stop-color="#e3e3e3"/>
      <stop offset=".86" stop-color="#e1e1e1"/>
      <stop offset=".86" stop-color="#dfdfdf"/>
      <stop offset=".87" stop-color="#dddcdc"/>
      <stop offset=".87" stop-color="#dadada"/>
      <stop offset=".88" stop-color="#d8d7d7"/>
      <stop offset=".88" stop-color="#d5d5d5"/>
      <stop offset=".88" stop-color="#d3d2d2"/>
      <stop offset=".89" stop-color="#d0cfcf"/>
      <stop offset=".89" stop-color="#cdcccc"/>
      <stop offset=".89" stop-color="#c9c8c9"/>
      <stop offset=".9" stop-color="#c6c5c5"/>
      <stop offset=".9" stop-color="#c2c1c2"/>
      <stop offset=".91" stop-color="#bfbebe"/>
      <stop offset=".91" stop-color="#bbbaba"/>
      <stop offset=".91" stop-color="#b7b5b6"/>
      <stop offset=".92" stop-color="#b2b1b1"/>
      <stop offset=".92" stop-color="#aeacad"/>
      <stop offset=".93" stop-color="#a9a8a8"/>
      <stop offset=".93" stop-color="#a4a3a3"/>
      <stop offset=".93" stop-color="#9f9d9e"/>
      <stop offset=".94" stop-color="#9a9898"/>
      <stop offset=".94" stop-color="#949293"/>
      <stop offset=".95" stop-color="#8e8c8d"/>
      <stop offset=".95" stop-color="#888687"/>
      <stop offset=".95" stop-color="#828080"/>
      <stop offset=".96" stop-color="#7b7979"/>
      <stop offset=".96" stop-color="#747272"/>
      <stop offset=".96" stop-color="#6d6a6b"/>
      <stop offset=".97" stop-color="#666364"/>
      <stop offset=".97" stop-color="#5e5b5c"/>
      <stop offset=".98" stop-color="#565353"/>
      <stop offset=".98" stop-color="#4d4a4b"/>
      <stop offset=".98" stop-color="#444142"/>
      <stop offset=".99" stop-color="#3b3839"/>
      <stop offset=".99" stop-color="#322e2f"/>
      <stop offset="1" stop-color="#282425"/>
      <stop offset="1" stop-color="#231f20"/>
    </radialGradient>
    <clipPath id="clippath-6">
      <rect class="cls-12" x="584.54" y="1011.66" width="368" height="366"/>
    </clipPath>
    <clipPath id="clippath-7">
      <path class="cls-12" d="M768.64,1377.59c91,0,166.56-66.11,181.26-152.92,1.71-10.05,2.6-20.39,2.6-30.93,0-24.11-4.64-47.13-13.08-68.23-7.46-10.8-15.67-21.42-24.76-31.59-27.09-30.27-62.06-56.42-109.06-70.79-14.91-4.56-31.05-7.93-48.54-9.87-5.58-.61-11.01-1.03-16.29-1.27-88.32,13.43-155.98,89.69-155.98,181.75,0,101.54,82.31,183.85,183.85,183.85M768.64,1060.78c73.44,0,132.97,59.52,132.97,132.96s-59.53,132.96-132.97,132.96-132.96-59.53-132.96-132.96,59.53-132.96,132.96-132.96Z"/>
    </clipPath>
    <clipPath id="clippath-8">
      <path class="cls-12" d="M768.64,1377.59c91,0,166.56-66.11,181.26-152.92,1.71-10.05,2.6-20.39,2.6-30.93,0-24.11-4.64-47.13-13.08-68.23-7.46-10.8-15.67-21.42-24.76-31.59-27.09-30.27-62.06-56.42-109.06-70.79-14.91-4.56-31.05-7.93-48.54-9.87-5.58-.61-11.01-1.03-16.29-1.27-88.32,13.43-155.98,89.69-155.98,181.75,0,101.54,82.31,183.85,183.85,183.85M768.64,1060.78c73.44,0,132.97,59.52,132.97,132.96s-59.53,132.96-132.97,132.96-132.96-59.53-132.96-132.96,59.53-132.96,132.96-132.96Z"/>
    </clipPath>
    <radialGradient id="radial-gradient-3" cx="-4.54" cy="2011.34" fx="-4.54" fy="2011.34" r="183.86" gradientTransform="translate(764.1 3205.08) rotate(-180)" gradientUnits="userSpaceOnUse">
      <stop offset="0" stop-color="#6d6e71"/>
      <stop offset=".06" stop-color="#6c6d70"/>
      <stop offset=".09" stop-color="#6c6c6f"/>
      <stop offset=".12" stop-color="#6b6c6f"/>
      <stop offset=".14" stop-color="#6a6b6e"/>
      <stop offset=".17" stop-color="#696a6d"/>
      <stop offset=".19" stop-color="#69696c"/>
      <stop offset=".2" stop-color="#68696c"/>
      <stop offset=".21" stop-color="#68686b"/>
      <stop offset=".23" stop-color="#67686b"/>
      <stop offset=".24" stop-color="#67676a"/>
      <stop offset=".25" stop-color="#66676a"/>
      <stop offset=".26" stop-color="#666669"/>
      <stop offset=".27" stop-color="#656669"/>
      <stop offset=".28" stop-color="#656568"/>
      <stop offset=".29" stop-color="#656568"/>
      <stop offset=".29" stop-color="#646567"/>
      <stop offset=".3" stop-color="#646467"/>
      <stop offset=".31" stop-color="#636466"/>
      <stop offset=".32" stop-color="#636366"/>
      <stop offset=".32" stop-color="#626365"/>
      <stop offset=".33" stop-color="#626265"/>
      <stop offset=".34" stop-color="#626265"/>
      <stop offset=".35" stop-color="#616164"/>
      <stop offset=".36" stop-color="#616163"/>
      <stop offset=".36" stop-color="#606063"/>
      <stop offset=".37" stop-color="#606062"/>
      <stop offset=".38" stop-color="#5f5f62"/>
      <stop offset=".39" stop-color="#5f5f61"/>
      <stop offset=".39" stop-color="#5e5e61"/>
      <stop offset=".4" stop-color="#5e5e60"/>
      <stop offset=".41" stop-color="#5d5d60"/>
      <stop offset=".42" stop-color="#5d5d5f"/>
      <stop offset=".43" stop-color="#5c5c5f"/>
      <stop offset=".43" stop-color="#5c5b5e"/>
      <stop offset=".44" stop-color="#5b5b5d"/>
      <stop offset=".45" stop-color="#5a5a5d"/>
      <stop offset=".46" stop-color="#5a5a5c"/>
      <stop offset=".46" stop-color="#59595b"/>
      <stop offset=".47" stop-color="#59585b"/>
      <stop offset=".48" stop-color="#58585a"/>
      <stop offset=".49" stop-color="#58575a"/>
      <stop offset=".5" stop-color="#575759"/>
      <stop offset=".5" stop-color="#575658"/>
      <stop offset=".51" stop-color="#565658"/>
      <stop offset=".51" stop-color="#565558"/>
      <stop offset=".52" stop-color="#565557"/>
      <stop offset=".52" stop-color="#555557"/>
      <stop offset=".52" stop-color="#555457"/>
      <stop offset=".53" stop-color="#555456"/>
      <stop offset=".53" stop-color="#545456"/>
      <stop offset=".54" stop-color="#545356"/>
      <stop offset=".54" stop-color="#545355"/>
      <stop offset=".54" stop-color="#535355"/>
      <stop offset=".55" stop-color="#535255"/>
      <stop offset=".55" stop-color="#535254"/>
      <stop offset=".55" stop-color="#525254"/>
      <stop offset=".56" stop-color="#525154"/>
      <stop offset=".56" stop-color="#525153"/>
      <stop offset=".57" stop-color="#515153"/>
      <stop offset=".57" stop-color="#515053"/>
      <stop offset=".57" stop-color="#515052"/>
      <stop offset=".58" stop-color="#505052"/>
      <stop offset=".58" stop-color="#504f51"/>
      <stop offset=".59" stop-color="#504f51"/>
      <stop offset=".59" stop-color="#4f4e51"/>
      <stop offset=".59" stop-color="#4f4e50"/>
      <stop offset=".6" stop-color="#4f4e50"/>
      <stop offset=".6" stop-color="#4e4d50"/>
      <stop offset=".61" stop-color="#4e4d4f"/>
      <stop offset=".61" stop-color="#4e4d4f"/>
      <stop offset=".61" stop-color="#4d4c4e"/>
      <stop offset=".62" stop-color="#4d4c4e"/>
      <stop offset=".62" stop-color="#4d4b4e"/>
      <stop offset=".62" stop-color="#4c4b4d"/>
      <stop offset=".63" stop-color="#4c4b4d"/>
      <stop offset=".64" stop-color="#4b4a4c"/>
      <stop offset=".64" stop-color="#4a494b"/>
      <stop offset=".65" stop-color="#4a484a"/>
      <stop offset=".66" stop-color="#494749"/>
      <stop offset=".67" stop-color="#484749"/>
      <stop offset=".68" stop-color="#474648"/>
      <stop offset=".68" stop-color="#474547"/>
      <stop offset=".69" stop-color="#464446"/>
      <stop offset=".7" stop-color="#454345"/>
      <stop offset=".71" stop-color="#444344"/>
      <stop offset=".71" stop-color="#434244"/>
      <stop offset=".72" stop-color="#434143"/>
      <stop offset=".73" stop-color="#424042"/>
      <stop offset=".74" stop-color="#413f41"/>
      <stop offset=".75" stop-color="#403e40"/>
      <stop offset=".75" stop-color="#403e3f"/>
      <stop offset=".76" stop-color="#3f3d3f"/>
      <stop offset=".76" stop-color="#3f3d3e"/>
      <stop offset=".77" stop-color="#3e3c3e"/>
      <stop offset=".77" stop-color="#3e3c3e"/>
      <stop offset=".77" stop-color="#3e3b3d"/>
      <stop offset=".78" stop-color="#3d3b3d"/>
      <stop offset=".78" stop-color="#3d3a3c"/>
      <stop offset=".79" stop-color="#3c3a3c"/>
      <stop offset=".79" stop-color="#3c3a3b"/>
      <stop offset=".79" stop-color="#3b393b"/>
      <stop offset=".8" stop-color="#3b393a"/>
      <stop offset=".8" stop-color="#3b383a"/>
      <stop offset=".8" stop-color="#3a3839"/>
      <stop offset=".81" stop-color="#3a3739"/>
      <stop offset=".81" stop-color="#393738"/>
      <stop offset=".82" stop-color="#393638"/>
      <stop offset=".82" stop-color="#383537"/>
      <stop offset=".83" stop-color="#373436"/>
      <stop offset=".84" stop-color="#363335"/>
      <stop offset=".85" stop-color="#353234"/>
      <stop offset=".86" stop-color="#343133"/>
      <stop offset=".86" stop-color="#333032"/>
      <stop offset=".87" stop-color="#333031"/>
      <stop offset=".88" stop-color="#322f31"/>
      <stop offset=".88" stop-color="#322f30"/>
      <stop offset=".88" stop-color="#312e30"/>
      <stop offset=".89" stop-color="#312e2f"/>
      <stop offset=".89" stop-color="#302d2f"/>
      <stop offset=".89" stop-color="#302d2e"/>
      <stop offset=".9" stop-color="#2f2c2e"/>
      <stop offset=".9" stop-color="#2f2c2d"/>
      <stop offset=".91" stop-color="#2e2b2d"/>
      <stop offset=".91" stop-color="#2e2b2c"/>
      <stop offset=".91" stop-color="#2e2a2c"/>
      <stop offset=".92" stop-color="#2d2a2b"/>
      <stop offset=".92" stop-color="#2d292a"/>
      <stop offset=".93" stop-color="#2c292a"/>
      <stop offset=".93" stop-color="#2c2829"/>
      <stop offset=".93" stop-color="#2b2829"/>
      <stop offset=".94" stop-color="#2b2728"/>
      <stop offset=".94" stop-color="#2a2728"/>
      <stop offset=".95" stop-color="#2a2627"/>
      <stop offset=".95" stop-color="#292627"/>
      <stop offset=".95" stop-color="#292526"/>
      <stop offset=".96" stop-color="#282526"/>
      <stop offset=".96" stop-color="#282425"/>
      <stop offset=".96" stop-color="#272425"/>
      <stop offset=".97" stop-color="#272324"/>
      <stop offset=".97" stop-color="#262224"/>
      <stop offset=".98" stop-color="#262223"/>
      <stop offset=".98" stop-color="#252122"/>
      <stop offset=".98" stop-color="#252122"/>
      <stop offset=".99" stop-color="#242021"/>
      <stop offset=".99" stop-color="#242021"/>
      <stop offset="1" stop-color="#231f20"/>
      <stop offset="1" stop-color="#231f20"/>
    </radialGradient>
    <clipPath id="clippath-9">
      <rect class="cls-12" x="656.54" y="1081.66" width="224" height="224"/>
    </clipPath>
    <clipPath id="clippath-10">
      <path class="cls-12" d="M768.64,1305.12c61.51,0,111.38-49.87,111.38-111.38s-49.87-111.38-111.38-111.38-111.37,49.87-111.37,111.38,49.86,111.38,111.37,111.38M768.64,1261.42h-.72s-.08-.01-.12-.01h-.51s-.08-.01-.12-.01h-.3s-.08,0-.12,0h-.22s-.05,0-.08-.01h-.23c-.06,0-.12,0-.18,0h-.09s-.08-.01-.12-.01h-.09s-.08,0-.12,0h-.09s-.08,0-.12-.01h-.09s-.08,0-.11,0h-.1s-.08-.01-.11-.01h-.1s-.07-.01-.11-.01h-.1s-.07,0-.11,0c-.03,0-.06,0-.1-.01h-.11s-.06,0-.09,0c-.04,0-.09,0-.13-.01h-.08c-.07,0-.14,0-.2-.02h-.04c-.06,0-.11-.01-.17-.01-.03,0-.05,0-.08,0-.04,0-.08,0-.12-.01h-.09s-.08,0-.12,0c-.03,0-.06-.01-.09-.01-.04,0-.08,0-.12,0-.03,0-.06,0-.09-.01-.04,0-.08,0-.12,0h-.08s-.08-.01-.12-.01c-.03-.01-.06-.01-.09-.01-.04,0-.08,0-.12,0-.03-.01-.06-.01-.09-.01-.04,0-.08,0-.12,0-.03,0-.06-.01-.08-.01-.05,0-.09,0-.13,0-.03,0-.05-.01-.08-.01-.04,0-.09,0-.13,0-.03-.01-.05-.01-.08-.01-.06-.01-.13-.01-.2-.02h-.02c-.06-.01-.12-.02-.18-.02-.03-.01-.05-.01-.07-.01-.05,0-.09,0-.14-.02h-.08s-.08-.01-.12-.02c-.03,0-.06-.01-.08-.01-.05,0-.09,0-.13,0-.03-.01-.05-.01-.08-.01-.04,0-.08,0-.12-.02-.03,0-.06,0-.09,0-.04,0-.08-.01-.12-.01-.03-.01-.05-.01-.08-.01-.04,0-.08,0-.12-.02-.03,0-.06,0-.09,0-.04,0-.08-.01-.12-.01-.03,0-.05,0-.08,0-.04-.01-.09-.02-.14-.02-.02-.01-.04-.01-.06-.01-.06-.01-.12-.02-.18-.03h-.02l-.42-.06h-.03c-.06-.01-.11-.02-.17-.03h-.05c-.06,0-.1-.02-.15-.03-.03,0-.05,0-.07-.01-.04,0-.09-.01-.14-.02-.02,0-.04,0-.07-.01-.04,0-.09,0-.13-.02-.02,0-.05,0-.07,0-.05-.01-.09-.01-.14-.02-.02,0-.04-.01-.06-.01-.05-.01-.1-.02-.15-.02-.02-.01-.03-.01-.05-.01-.05,0-.11-.02-.16-.03-.02,0-.03,0-.04-.01-.07-.01-.13-.02-.19-.03h-.01c-.28-.05-.56-.09-.83-.14h-.01c-.07-.02-.13-.03-.2-.04,0,0-.01,0-.02,0-.06-.01-.12-.02-.18-.03h-.03c-.06-.02-.11-.03-.17-.04h-.04c-.06-.02-.11-.03-.17-.04h-.03c-.06-.02-.12-.03-.18-.04h-.02c-20.28-4.02-37.3-17.1-46.66-34.84,0,0-.01-.02-.01-.02-.02-.05-.05-.1-.07-.14,0-.02-.03-.04-.03-.06-.02-.03-.04-.06-.05-.09-.02-.04-.04-.07-.06-.1,0,0,0-.02,0-.03-3.79-7.31-6.29-15.41-7.19-23.98-.25-2.35-.37-4.72-.37-7.14,0-16.77,6.1-32.11,16.21-43.94,12.41-14.52,30.87-23.73,51.47-23.73,32,0,58.82,22.21,65.87,52.05,0,.01.01.02.01.03,0,.04.02.08.03.12,1.16,4.97,1.78,10.15,1.78,15.47,0,35.98-28.06,65.39-63.48,67.56-.03,0-.05,0-.08.01-.13,0-.26,0-.4.02h-.03c-.28.02-.55.03-.83.04h-.03c-.35.02-.69.03-1.04.04-.6.01-1.2.02-1.8.02Z"/>
    </clipPath>
    <clipPath id="clippath-11">
      <path class="cls-12" d="M768.64,1305.12c61.51,0,111.38-49.87,111.38-111.38s-49.87-111.38-111.38-111.38-111.37,49.87-111.37,111.38,49.86,111.38,111.37,111.38M768.64,1261.42h-.72s-.08-.01-.12-.01h-.51s-.08-.01-.12-.01h-.3s-.08,0-.12,0h-.22s-.05,0-.08-.01h-.23c-.06,0-.12,0-.18,0h-.09s-.08-.01-.12-.01h-.09s-.08,0-.12,0h-.09s-.08,0-.12-.01h-.09s-.08,0-.11,0h-.1s-.08-.01-.11-.01h-.1s-.07-.01-.11-.01h-.1s-.07,0-.11,0c-.03,0-.06,0-.1-.01h-.11s-.06,0-.09,0c-.04,0-.09,0-.13-.01h-.08c-.07,0-.14,0-.2-.02h-.04c-.06,0-.11-.01-.17-.01-.03,0-.05,0-.08,0-.04,0-.08,0-.12-.01h-.09s-.08,0-.12,0c-.03,0-.06-.01-.09-.01-.04,0-.08,0-.12,0-.03,0-.06,0-.09-.01-.04,0-.08,0-.12,0h-.08s-.08-.01-.12-.01c-.03-.01-.06-.01-.09-.01-.04,0-.08,0-.12,0-.03-.01-.06-.01-.09-.01-.04,0-.08,0-.12,0-.03,0-.06-.01-.08-.01-.05,0-.09,0-.13,0-.03,0-.05-.01-.08-.01-.04,0-.09,0-.13,0-.03-.01-.05-.01-.08-.01-.06-.01-.13-.01-.2-.02h-.02c-.06-.01-.12-.02-.18-.02-.03-.01-.05-.01-.07-.01-.05,0-.09,0-.14-.02h-.08s-.08-.01-.12-.02c-.03,0-.06-.01-.08-.01-.05,0-.09,0-.13,0-.03-.01-.05-.01-.08-.01-.04,0-.08,0-.12-.02-.03,0-.06,0-.09,0-.04,0-.08-.01-.12-.01-.03-.01-.05-.01-.08-.01-.04,0-.08,0-.12-.02-.03,0-.06,0-.09,0-.04,0-.08-.01-.12-.01-.03,0-.05,0-.08,0-.04-.01-.09-.02-.14-.02-.02-.01-.04-.01-.06-.01-.06-.01-.12-.02-.18-.03h-.02l-.42-.06h-.03c-.06-.01-.11-.02-.17-.03h-.05c-.06,0-.1-.02-.15-.03-.03,0-.05,0-.07-.01-.04,0-.09-.01-.14-.02-.02,0-.04,0-.07-.01-.04,0-.09,0-.13-.02-.02,0-.05,0-.07,0-.05-.01-.09-.01-.14-.02-.02,0-.04-.01-.06-.01-.05-.01-.1-.02-.15-.02-.02-.01-.03-.01-.05-.01-.05,0-.11-.02-.16-.03-.02,0-.03,0-.04-.01-.07-.01-.13-.02-.19-.03h-.01c-.28-.05-.56-.09-.83-.14h-.01c-.07-.02-.13-.03-.2-.04,0,0-.01,0-.02,0-.06-.01-.12-.02-.18-.03h-.03c-.06-.02-.11-.03-.17-.04h-.04c-.06-.02-.11-.03-.17-.04h-.03c-.06-.02-.12-.03-.18-.04h-.02c-20.28-4.02-37.3-17.1-46.66-34.84,0,0-.01-.02-.01-.02-.02-.05-.05-.1-.07-.14,0-.02-.03-.04-.03-.06-.02-.03-.04-.06-.05-.09-.02-.04-.04-.07-.06-.1,0,0,0-.02,0-.03-3.79-7.31-6.29-15.41-7.19-23.98-.25-2.35-.37-4.72-.37-7.14,0-16.77,6.1-32.11,16.21-43.94,12.41-14.52,30.87-23.73,51.47-23.73,32,0,58.82,22.21,65.87,52.05,0,.01.01.02.01.03,0,.04.02.08.03.12,1.16,4.97,1.78,10.15,1.78,15.47,0,35.98-28.06,65.39-63.48,67.56-.03,0-.05,0-.08.01-.13,0-.26,0-.4.02h-.03c-.28.02-.55.03-.83.04h-.03c-.35.02-.69.03-1.04.04-.6.01-1.2.02-1.8.02Z"/>
    </clipPath>
    <radialGradient id="radial-gradient-4" cx="-4.54" cy="2011.34" fx="-4.54" fy="2011.34" r="111.38" gradientTransform="translate(764.1 3205.08) rotate(-180)" gradientUnits="userSpaceOnUse">
      <stop offset="0" stop-color="#fff"/>
      <stop offset=".5" stop-color="#fff"/>
      <stop offset=".62" stop-color="#fff"/>
      <stop offset=".72" stop-color="#fefefe"/>
      <stop offset=".73" stop-color="#fdfdfd"/>
      <stop offset=".75" stop-color="#fcfcfc"/>
      <stop offset=".76" stop-color="#fcfcfc"/>
      <stop offset=".76" stop-color="#fbfbfb"/>
      <stop offset=".77" stop-color="#fbfbfb"/>
      <stop offset=".77" stop-color="#fbfbfb"/>
      <stop offset=".77" stop-color="#fafafa"/>
      <stop offset=".78" stop-color="#fafafa"/>
      <stop offset=".78" stop-color="#f9f9f9"/>
      <stop offset=".79" stop-color="#f9f8f8"/>
      <stop offset=".79" stop-color="#f8f8f8"/>
      <stop offset=".79" stop-color="#f7f7f7"/>
      <stop offset=".8" stop-color="#f7f6f6"/>
      <stop offset=".8" stop-color="#f6f6f6"/>
      <stop offset=".8" stop-color="#f5f5f5"/>
      <stop offset=".81" stop-color="#f4f4f4"/>
      <stop offset=".81" stop-color="#f3f3f3"/>
      <stop offset=".82" stop-color="#f2f2f2"/>
      <stop offset=".82" stop-color="#f1f1f1"/>
      <stop offset=".82" stop-color="#f0eff0"/>
      <stop offset=".83" stop-color="#eee"/>
      <stop offset=".83" stop-color="#ededed"/>
      <stop offset=".84" stop-color="#ecebeb"/>
      <stop offset=".84" stop-color="#eaeaea"/>
      <stop offset=".84" stop-color="#e9e8e8"/>
      <stop offset=".85" stop-color="#e7e6e7"/>
      <stop offset=".85" stop-color="#e5e5e5"/>
      <stop offset=".86" stop-color="#e3e3e3"/>
      <stop offset=".86" stop-color="#e1e1e1"/>
      <stop offset=".86" stop-color="#dfdfdf"/>
      <stop offset=".87" stop-color="#dddcdc"/>
      <stop offset=".87" stop-color="#dadada"/>
      <stop offset=".88" stop-color="#d8d7d7"/>
      <stop offset=".88" stop-color="#d5d5d5"/>
      <stop offset=".88" stop-color="#d3d2d2"/>
      <stop offset=".89" stop-color="#d0cfcf"/>
      <stop offset=".89" stop-color="#cdcccc"/>
      <stop offset=".89" stop-color="#c9c8c9"/>
      <stop offset=".9" stop-color="#c6c5c5"/>
      <stop offset=".9" stop-color="#c2c1c2"/>
      <stop offset=".91" stop-color="#bfbebe"/>
      <stop offset=".91" stop-color="#bbbaba"/>
      <stop offset=".91" stop-color="#b7b5b6"/>
      <stop offset=".92" stop-color="#b2b1b1"/>
      <stop offset=".92" stop-color="#aeacad"/>
      <stop offset=".93" stop-color="#a9a8a8"/>
      <stop offset=".93" stop-color="#a4a3a3"/>
      <stop offset=".93" stop-color="#9f9d9e"/>
      <stop offset=".94" stop-color="#9a9898"/>
      <stop offset=".94" stop-color="#949293"/>
      <stop offset=".95" stop-color="#8e8c8d"/>
      <stop offset=".95" stop-color="#888687"/>
      <stop offset=".95" stop-color="#828080"/>
      <stop offset=".96" stop-color="#7b7979"/>
      <stop offset=".96" stop-color="#747272"/>
      <stop offset=".96" stop-color="#6d6a6b"/>
      <stop offset=".97" stop-color="#666364"/>
      <stop offset=".97" stop-color="#5e5b5c"/>
      <stop offset=".98" stop-color="#565353"/>
      <stop offset=".98" stop-color="#4d4a4b"/>
      <stop offset=".98" stop-color="#444142"/>
      <stop offset=".99" stop-color="#3b3839"/>
      <stop offset=".99" stop-color="#322e2f"/>
      <stop offset="1" stop-color="#282425"/>
      <stop offset="1" stop-color="#231f20"/>
    </radialGradient>
    <linearGradient id="linear-gradient" x1="335.54" y1="906.02" x2="2670.82" y2="906.02" gradientUnits="userSpaceOnUse">
      <stop offset="0" stop-color="#ff2e2e"/>
      <stop offset="1" stop-color="#b30000"/>
    </linearGradient>
    <linearGradient id="linear-gradient-2" x1="814.77" y1="1132.38" x2="2059.82" y2="1132.38" gradientUnits="userSpaceOnUse">
      <stop offset="0" stop-color="#ff2e2e"/>
      <stop offset="1" stop-color="#b30000"/>
    </linearGradient>
    <linearGradient id="linear-gradient-3" x1="2203.22" y1="1111.25" x2="2669.43" y2="1111.25" xlink:href="#linear-gradient-2"/>
    <linearGradient id="linear-gradient-4" x1="336.93" y1="1116.31" x2="657.09" y2="1116.31" xlink:href="#linear-gradient-2"/>
    <linearGradient id="linear-gradient-5" x1="386.41" y1="862.92" x2="1062.48" y2="862.92" xlink:href="#linear-gradient-2"/>
    <linearGradient id="linear-gradient-6" x1="393.68" y1="855.29" x2="1056.14" y2="855.29" xlink:href="#linear-gradient-2"/>
    <linearGradient id="linear-gradient-7" x1="2190.78" y1="861.88" x2="2606.41" y2="861.88" xlink:href="#linear-gradient-2"/>
    <linearGradient id="linear-gradient-8" x1="1250.73" y1="614.94" x2="2018.36" y2="614.94" xlink:href="#linear-gradient-2"/>
    <linearGradient id="linear-gradient-9" x1="1250.32" y1="604.27" x2="2011.42" y2="604.27" xlink:href="#linear-gradient-2"/>
    <linearGradient id="linear-gradient-10" x1="1537.32" y1="916.35" x2="1620.45" y2="916.35" xlink:href="#linear-gradient-2"/>
  </defs>
  <path class="cls-22" d="M2571.89,1180.89c-34.52,8.98-69.05,17.96-103.57,26.94-6.54-4.9-13.09-9.79-19.63-14.69-12.96,1.57-31.85,3.81-54.65,6.33-177.8,19.67-317.52,26.1-487.45,31.68-296.43,9.71-519.36,11.38-589.53,11.81-135.07.83-244.62.43-312.88,0-8.6-5.29-17.21-10.58-25.81-15.87-131.19-11.12-262.39-22.24-393.58-33.35-19.03,5.22-38.06,10.45-57.08,15.67,0,0-71.86-166.56-14.69-186.21,57.18-19.66,165.89-55.09,270.55-57.77,104.66-2.69,226.17-41.54,533.49-10.65,307.32,30.9,624.46,33.67,728.54,28.71,104.09-4.96,318.5-31.17,357.8-18.06,71.07,23.69,110.43,90.19,110.43,90.19,37.67,48.91,52.07,97.73,58.06,125.27"/>
  <g class="cls-44">
    <g class="cls-19">
      <g class="cls-40">
        <path class="cls-14" d="M2312.88,1016.7v360.89h-367.71v-360.89h367.71Z"/>
      </g>
    </g>
  </g>
  <path class="cls-5" d="M1996.05,1193.74c0,73.43,59.53,132.96,132.96,132.96s132.96-59.53,132.96-132.96-59.53-132.96-132.96-132.96-132.96,59.52-132.96,132.96"/>
  <path class="cls-31" d="M2012.42,1193.74c0,64.4,52.2,116.6,116.6,116.6s116.6-52.2,116.6-116.6-52.2-116.6-116.6-116.6-116.6,52.2-116.6,116.6"/>
  <g class="cls-28">
    <g class="cls-3">
      <g class="cls-23">
        <path class="cls-30" d="M2240.4,1082.36v222.76h-222.75v-222.76h222.75Z"/>
      </g>
    </g>
  </g>
  <path class="cls-22" d="M2061.34,1193.74c0,37.38,30.3,67.68,67.68,67.68s67.68-30.3,67.68-67.68-30.3-67.68-67.68-67.68-67.68,30.3-67.68,67.68"/>
  <path class="cls-5" d="M2061.34,1193.73c0,3.14.21,6.21.64,9.23,4.48,33.03,32.8,58.46,67.05,58.46,37.38,0,67.69-30.3,67.69-67.69,0-7.01-1.07-13.79-3.06-20.15-8.58-27.53-34.27-47.52-64.63-47.52-37.38,0-67.68,30.3-67.68,67.67"/>
  <path class="cls-22" d="M2115.63,1110.32h26.78c1,0,1.76-.95,1.48-1.91-1.34-4.64-7.48-8.15-14.87-8.15s-13.54,3.51-14.88,8.15c-.27.96.49,1.91,1.48,1.91"/>
  <path class="cls-22" d="M2060.56,1144.22l18.94-18.94c.7-.7.57-1.91-.3-2.39-4.23-2.34-11.06-.47-16.28,4.75-5.23,5.22-7.09,12.05-4.75,16.28.48.87,1.69,1,2.39.3"/>
  <path class="cls-22" d="M2045.6,1207.13v-26.78c0-1-.95-1.76-1.9-1.48-4.64,1.33-8.15,7.48-8.15,14.86s3.51,13.54,8.15,14.88c.96.28,1.9-.49,1.9-1.48"/>
  <path class="cls-22" d="M2079.5,1262.2l-18.94-18.94c-.7-.7-1.91-.57-2.39.3-2.34,4.23-.47,11.05,4.75,16.27,5.23,5.23,12.05,7.1,16.29,4.76.87-.48,1-1.69.3-2.39"/>
  <path class="cls-22" d="M2142.41,1277.16h-26.78c-.99,0-1.75.95-1.48,1.91,1.34,4.64,7.48,8.15,14.87,8.15s13.54-3.51,14.88-8.15c.27-.96-.49-1.91-1.48-1.91"/>
  <path class="cls-22" d="M2197.48,1243.26l-18.94,18.94c-.7.7-.57,1.91.3,2.39,4.23,2.34,11.05.47,16.28-4.75,5.23-5.22,7.09-12.05,4.75-16.28-.48-.87-1.69-1-2.39-.3"/>
  <path class="cls-22" d="M2212.45,1180.35v26.78c0,.99.95,1.76,1.9,1.48,4.64-1.34,8.15-7.48,8.15-14.87s-3.51-13.54-8.15-14.87c-.96-.28-1.9.48-1.9,1.48"/>
  <path class="cls-22" d="M2178.54,1125.28l18.94,18.94c.7.7,1.91.57,2.39-.3,2.34-4.23.47-11.06-4.75-16.28-5.23-5.22-12.05-7.09-16.29-4.75-.87.48-1,1.69-.3,2.39"/>
  <path class="cls-27" d="M2129.02,1261.42c37.38,0,67.69-30.3,67.69-67.69,0-7.01-1.07-13.79-3.06-20.15-10.03.91-19.44,2.57-27.59,5.23-40.05,13.08-72.73,24.15-103.01,24.16-.36,0-.71,0-1.07,0,4.48,33.03,32.8,58.46,67.05,58.46"/>
  <g class="cls-1">
    <g class="cls-2">
      <g class="cls-24">
        <path class="cls-16" d="M952.5,1011.99v365.6h-367.71v-365.6h367.71Z"/>
      </g>
    </g>
  </g>
  <path class="cls-5" d="M635.68,1193.74c0,73.43,59.53,132.96,132.96,132.96s132.97-59.53,132.97-132.96-59.53-132.96-132.97-132.96-132.96,59.52-132.96,132.96"/>
  <path class="cls-31" d="M652.04,1193.74c0,64.4,52.21,116.6,116.6,116.6s116.6-52.2,116.6-116.6-52.2-116.6-116.6-116.6-116.6,52.2-116.6,116.6"/>
  <g class="cls-8">
    <g class="cls-10">
      <g class="cls-11">
        <path class="cls-32" d="M880.02,1082.36v222.76h-222.75v-222.76h222.75Z"/>
      </g>
    </g>
  </g>
  <path class="cls-22" d="M700.96,1193.74c0,37.38,30.3,67.68,67.68,67.68s67.68-30.3,67.68-67.68-30.3-67.68-67.68-67.68-67.68,30.3-67.68,67.68"/>
  <path class="cls-5" d="M700.96,1193.73c0,3.14.21,6.21.63,9.23,4.49,33.03,32.81,58.46,67.05,58.46,37.38,0,67.69-30.3,67.69-67.69,0-7.01-1.08-13.79-3.06-20.15-8.58-27.53-34.27-47.52-64.63-47.52-37.37,0-67.68,30.3-67.68,67.67"/>
  <path class="cls-22" d="M755.25,1110.32h26.78c1,0,1.76-.95,1.48-1.91-1.33-4.64-7.48-8.15-14.86-8.15s-13.54,3.51-14.88,8.15c-.27.96.49,1.91,1.48,1.91"/>
  <path class="cls-22" d="M700.18,1144.22l18.94-18.94c.71-.7.57-1.91-.3-2.39-4.23-2.34-11.05-.47-16.27,4.75-5.23,5.22-7.1,12.05-4.76,16.28.48.87,1.69,1,2.39.3"/>
  <path class="cls-22" d="M685.22,1207.13v-26.78c0-1-.95-1.76-1.9-1.48-4.65,1.33-8.16,7.48-8.16,14.86s3.51,13.54,8.16,14.88c.95.28,1.9-.49,1.9-1.48"/>
  <path class="cls-22" d="M719.11,1262.2l-18.94-18.94c-.7-.7-1.91-.57-2.39.3-2.34,4.23-.47,11.05,4.75,16.27,5.23,5.23,12.05,7.1,16.28,4.76.87-.48,1.01-1.69.3-2.39"/>
  <path class="cls-22" d="M782.02,1277.16h-26.78c-.99,0-1.75.95-1.48,1.91,1.34,4.64,7.48,8.15,14.87,8.15s13.54-3.51,14.87-8.15c.28-.96-.48-1.91-1.48-1.91"/>
  <path class="cls-22" d="M837.09,1243.26l-18.94,18.94c-.7.7-.57,1.91.3,2.39,4.23,2.34,11.06.47,16.28-4.75,5.22-5.22,7.09-12.05,4.75-16.28-.48-.87-1.69-1-2.39-.3"/>
  <path class="cls-22" d="M852.07,1180.35v26.78c0,.99.94,1.76,1.9,1.48,4.65-1.34,8.15-7.48,8.15-14.87s-3.5-13.54-8.15-14.87c-.96-.28-1.9.48-1.9,1.48"/>
  <path class="cls-22" d="M818.16,1125.28l18.94,18.94c.7.7,1.91.57,2.39-.3,2.34-4.23.48-11.06-4.74-16.28-5.23-5.22-12.06-7.09-16.29-4.75-.87.48-1,1.69-.3,2.39"/>
  <path class="cls-27" d="M768.64,1261.42c37.38,0,67.69-30.3,67.69-67.69,0-7.01-1.08-13.79-3.06-20.15-10.03.91-19.44,2.57-27.59,5.23-40.06,13.08-72.74,24.15-103.01,24.16-.36,0-.72,0-1.08,0,4.49,33.03,32.81,58.46,67.05,58.46"/>
  <path class="cls-43" d="M335.54,1136.36v11.62s0,4.76,4.32,4.76h6.55v8.03s3.03,13.11,22.87,13.11h55.59s36.94-7.55,40.11-7.55c.28,0,.79.32,1.52.92,7.87,6.37,40.51,43.55,61.21,43.55,22.64,0,30.97-65.91,30.97-65.91,0,0,19.97-90.57,105.52-123.08,25.02-9.51,55.65-14.05,93.02-9.93,17.56,1.95,33.79,5.34,48.79,9.93,126.06,38.52,166.25,161.55,198.17,221.15l886.43-8.92s16.68,1.18,19.65-7.16c2.78-7.79,14.93-171.1,160.39-205.07,10.2-2.39,21.04-4.15,32.59-5.16,34.23-3,63.69-.81,89.14,5.16,105.6,24.69,141.82,114.06,161.01,163.98,0,0,2.98,14.9,21.45,14.9s197.73-18.47,197.73-18.47c0,0,11.91-12.31,15.09-21.04,0,0,.4,0,1.14-.02,8.42-.04,60.76-.61,65.97-6.64,5.66-6.54,5.06-15.79,5.06-15.79,0,0,11.02,2.99,11.02-6.25s-.9-14.28-6.56-14.28c0,0,.3-17.57-5.66-19.07-5.95-1.49-37.62-12.61-37.62-12.61,0,0,1.58-22.62,7.93-27.79,1.38-1.13,2.72-2.14,3.97-3.11,4.55-3.45,7.95-6.01,7.95-8.8,0-.96-.2-10.62-1.22-25.01-2.11-29.79-7.77-79.86-22.53-115.13-4.86-11.63-10.71-21.65-17.75-28.81,0,0-16.51-1.52-38.89-3.61-44.71-4.18-112.86-10.62-119.72-11.67-10.33-1.59-164.79-32.95-219.57-31.77,0,0-8.68,1.58-14.23-9.02l-.07-.11c-5.24-10.09-157.16-154.22-194.18-183.02-2.32-1.81-4.18-3.16-5.53-3.99-23.04-14.3-69.48-52.81-194.56-61.15-123.12-8.21-485.24-9.49-563.5,35.94-1.24.71-2.41,1.44-3.49,2.18-59.65,40.43-130.43,157.2-189.08,196-10.47,6.92-20.54,11.37-30.1,12.45-63.14,7.15-338.3,35.73-421.68,48.84-63.09,9.92-162.35,20.51-211.03,31.79-15.65,3.63-26.08,7.33-28.39,11.09-1.21,1.96-2.29,4.65-3.26,7.87-6.72,22.25-7.75,70.18-1.51,82.66,1.05,2.08,2.33,4.27,3.74,6.48,2.73,4.23,5.99,8.65,9.16,12.98,6.48,8.81,12.63,17.28,13.31,23.43v2.97h-19.45s-12.91-2.18-12.91,13.1v22.05s-1.79,7.54,11.31,7.54h41.5v2.57s-63.64,14.59-63.64,27.41v12.8s-8.03.3-8.03,2.68"/>
  <path class="cls-22" d="M335.54,1136.36h1.39v11.62h-.45.45s0,0,0,0h-.45.45s.04,1.05.45,1.89c.21.42.48.78.84,1.03.37.26.84.45,1.64.45h7.94v9.42h-1.39l1.35-.31-.52.12.52-.12-.52.12.52-.12s.76,3.06,3.77,6.03c3.02,2.97,8.28,5.99,17.75,6h55.59v1.39l-.28-1.36s9.24-1.89,18.88-3.78c4.82-.94,9.74-1.88,13.66-2.59,1.96-.36,3.67-.66,5-.86.66-.11,1.23-.19,1.7-.25.48-.06.82-.09,1.15-.1.33,0,.56.08.76.16.3.12.55.27.81.45.26.17.53.38.83.62,1.05.85,2.43,2.14,4.13,3.78,5.92,5.71,15.65,15.64,26.13,24.12,5.23,4.23,10.64,8.1,15.82,10.88,5.17,2.8,10.09,4.47,14.25,4.46,2.48,0,4.77-.88,6.99-2.55,3.88-2.9,7.36-8.24,10.26-14.64,4.36-9.6,7.47-21.5,9.46-30.98,1-4.74,1.72-8.88,2.19-11.83.24-1.47.41-2.65.53-3.46.05-.4.1-.71.12-.92.03-.21.05-.31.05-.31v-.06l.02-.07c.02-.09,5.04-22.86,20.83-49.75,15.79-26.89,42.4-57.93,85.55-74.33,18.88-7.18,40.93-11.55,66.57-11.54,8.62,0,17.64.49,27.09,1.53,17.65,1.96,33.97,5.36,49.04,9.98,63.4,19.37,105.23,60.03,135.13,103.21,14.95,21.59,26.94,43.82,37.18,64.37,10.24,20.54,18.74,39.41,26.68,54.25l-1.22.65v-1.39s886.48-8.92,886.48-8.92h.08c.15.01.88.06,1.98.06,2.22,0,5.93-.18,9.25-1.12,1.65-.47,3.2-1.12,4.42-1.98,1.22-.86,2.09-1.89,2.56-3.19.04-.11.14-.48.24-.99.41-2.01,1.03-6.28,2.06-12.17,3.63-20.66,12.33-61.54,35.66-100.95,11.66-19.71,26.99-39.05,47.17-55.27,20.19-16.23,45.23-29.34,76.25-36.59,10.27-2.4,21.18-4.17,32.79-5.18,10.35-.91,20.27-1.35,29.78-1.35,22.05,0,41.9,2.34,59.79,6.53,53.14,12.42,88.9,41.18,113.69,73.04,24.8,31.85,38.7,66.82,48.3,91.8l.04.11.02.12-.22.04.22-.04-.22.04.22-.04c.02.09.79,3.6,3.64,7,1.43,1.7,3.37,3.38,6.03,4.65,2.66,1.27,6.05,2.13,10.41,2.13,2.21,0,7.04-.29,13.69-.79,23.31-1.77,69.3-6.19,109.44-10.16,20.07-1.99,38.69-3.87,52.29-5.25,6.8-.69,12.34-1.26,16.18-1.65s5.98-.61,5.99-.61l.14,1.38-1-.97.13-.13c.64-.67,3.61-3.83,6.77-7.81,1.58-1.99,3.21-4.18,4.61-6.36,1.41-2.18,2.59-4.35,3.27-6.25l.33-.91h1.25c.19,0,.47,0,.84,0h.02c4.2-.03,19.37-.18,34.11-1.08,7.37-.45,14.63-1.08,20.33-1.97,2.84-.45,5.3-.96,7.14-1.52.92-.28,1.69-.58,2.26-.86.57-.29.94-.57,1.08-.74,2.14-2.48,3.34-5.43,3.99-8.07.65-2.63.75-4.92.75-6.03,0-.23,0-.41,0-.53v-.12s0-.03,0-.03h0s-.12-1.95-.12-1.95l1.88.51-.09.33.09-.33-.09.33.09-.33s1.6.42,3.4.41c1.44,0,2.99-.27,4.04-1,.53-.37.96-.83,1.29-1.51.32-.67.54-1.57.55-2.81,0-4.56-.26-8.04-1.07-10.1-.4-1.04-.89-1.69-1.49-2.11-.61-.42-1.4-.68-2.61-.69h-1.41l.02-1.41v-.1c0-.07,0-.17,0-.3,0-1.31-.07-5.58-.78-9.58-.35-2-.88-3.93-1.57-5.34-.34-.71-.73-1.28-1.11-1.67-.39-.39-.76-.6-1.14-.7h0c-1.58-.4-4.66-1.37-8.48-2.63-11.44-3.76-29.25-10.01-29.26-10.01l-1-.36.07-1.05s.4-5.73,1.61-12.12c.61-3.2,1.41-6.57,2.49-9.53.54-1.48,1.16-2.86,1.86-4.07s1.51-2.26,2.49-3.06h0c1.4-1.14,2.76-2.17,4-3.13h0s0,0,0,0c2.27-1.72,4.23-3.21,5.54-4.52.65-.65,1.14-1.26,1.44-1.79.3-.53.42-.97.42-1.38,0-.43-.05-3.1-.23-7.41-.18-4.32-.48-10.32-1-17.51-1.05-14.85-2.99-34.78-6.5-55.36-3.51-20.59-8.6-41.84-15.92-59.32-4.82-11.53-10.61-21.4-17.45-28.37l.99-.98-.13,1.39s-16.51-1.53-38.9-3.62c-22.35-2.09-50.57-4.74-74.05-7.01-11.74-1.13-22.3-2.16-30.36-2.98-4.03-.41-7.43-.76-10.04-1.05-2.62-.28-4.43-.5-5.34-.64-1.33-.2-4.75-.84-9.91-1.82-18.05-3.42-57.14-10.91-97.98-17.55-20.42-3.32-41.28-6.42-60.14-8.7-18.87-2.27-35.76-3.71-48.19-3.71-1.07,0-2.11.01-3.11.03l-.03-1.39.25,1.37c-.07,0-.61.1-1.48.1-1.46,0-3.88-.26-6.52-1.65-2.64-1.38-5.46-3.89-7.71-8.2l1.23-.64-1.18.74-.07-.11-.03-.05-.02-.05c-.09-.17-.36-.59-.78-1.12-1.63-2.1-5.38-6.17-10.67-11.62-18.55-19.09-56.33-55.48-93.38-90.12-18.52-17.32-36.86-34.21-52.53-48.29-15.66-14.08-28.67-25.36-36.45-31.42-2.3-1.79-4.14-3.12-5.41-3.9h0c-5.82-3.61-13.01-8.68-22.52-14.41-14.25-8.58-33.69-18.64-61.28-27.35-27.58-8.71-63.31-16.06-110.12-19.18-38.41-2.57-100.17-4.45-169.31-4.45-76.1,0-161.14,2.28-233.85,8.47-36.35,3.1-69.62,7.16-97.12,12.4-27.5,5.23-49.25,11.67-62.44,19.33-1.21.69-2.34,1.41-3.4,2.13-14.77,10-30.32,24.82-46.22,42.02-23.86,25.8-48.51,56.96-72.71,85.33-24.21,28.37-47.94,53.95-70.17,68.66-10.58,6.99-20.83,11.55-30.71,12.68-31.58,3.57-116.15,12.5-203.25,22.18-87.09,9.67-176.74,20.1-218.37,26.64-31.58,4.97-72.16,10.1-110.94,15.39-38.77,5.3-75.74,10.77-99.98,16.39-7.79,1.8-14.27,3.63-19.02,5.44-2.38.9-4.32,1.8-5.76,2.67-1.45.87-2.37,1.72-2.74,2.35l-.03.04.02-.04c-1.11,1.8-2.16,4.39-3.11,7.54-1.81,5.97-3.21,13.95-4.16,22.59-.95,8.65-1.44,17.98-1.44,26.71,0,7.19.33,13.98,1.01,19.63.34,2.82.76,5.36,1.27,7.52.51,2.16,1.1,3.93,1.73,5.19,1.01,2.02,2.26,4.17,3.66,6.35,2.69,4.18,5.94,8.58,9.11,12.9,3.24,4.41,6.42,8.75,8.9,12.82,2.47,4.07,4.28,7.83,4.68,11.28v4.52h-20.96l-.11-.02.07-.45-.07.45.07-.45-.07.45s-.56-.09-1.4-.09c-1.57,0-4.08.32-6.1,1.86-1.01.78-1.94,1.85-2.63,3.44-.7,1.59-1.16,3.7-1.16,6.52v22.21l-.04.16h-.02s.02,0,.02,0h0s-.02,0-.02,0h.02c-.01.06-.04.27-.04.58,0,.37.05.87.24,1.4.31.79.87,1.67,2.3,2.45,1.42.78,3.76,1.41,7.46,1.41h42.89v5.07l-1.08.25s-.25.05-.71.16c-3.47.82-19.17,4.62-33.95,9.7-7.38,2.53-14.54,5.39-19.76,8.31-2.61,1.45-4.74,2.93-6.13,4.31-.7.7-1.22,1.36-1.55,1.96-.32.61-.46,1.13-.46,1.61v14.13l-1.33.06h-.08c-.4.02-2.35.13-4.09.49-.87.18-1.69.43-2.16.68-.24.12-.38.24-.41.28h0s-.05-.03-.05-.03l.05.03h0s-.05-.03-.05-.03l.05.03-.29-.16h.33l-.04.16-.29-.16h.33-2.78c0-.35.08-.69.21-.99.25-.56.65-.94,1.06-1.23.72-.51,1.54-.8,2.4-1.05,1.3-.35,2.7-.54,3.8-.66,1.09-.11,1.88-.14,1.9-.14l.05,1.39h-1.39v-12.8c0-1.1.35-2.15.9-3.12,1.06-1.81,2.84-3.43,5.13-5.01,4.01-2.76,9.64-5.38,15.87-7.81,18.68-7.29,42.78-12.81,42.82-12.82l.31,1.35h-1.39v-2.57h1.39v1.39h-41.5c-2.68,0-4.81-.3-6.52-.82-2.57-.76-4.21-2.06-5.14-3.47-.93-1.4-1.12-2.81-1.12-3.75,0-.69.1-1.14.12-1.22l1.35.33h-1.39v-22.05c0-3.12.51-5.63,1.39-7.63,1.31-3.02,3.47-4.83,5.61-5.8,2.14-.97,4.24-1.17,5.67-1.17,1.09,0,1.8.12,1.86.13l-.23,1.37v-1.39h18.07v-1.58h1.38l-1.38.15c-.28-2.69-1.89-6.24-4.28-10.14-2.39-3.92-5.53-8.22-8.77-12.62-3.17-4.32-6.45-8.76-9.21-13.05-1.43-2.24-2.74-4.47-3.81-6.61-.77-1.56-1.41-3.5-1.95-5.8-1.6-6.86-2.34-16.86-2.35-27.78,0-8.83.5-18.25,1.46-27.01.96-8.76,2.38-16.86,4.26-23.09.99-3.29,2.1-6.07,3.41-8.2h0c.77-1.24,2.02-2.27,3.67-3.27,2.48-1.49,5.92-2.9,10.22-4.3,4.31-1.39,9.47-2.77,15.37-4.14,24.44-5.66,61.44-11.13,100.23-16.43,38.8-5.3,79.38-10.43,110.89-15.38,41.76-6.57,131.38-16.99,218.5-26.67,87.1-9.67,171.68-18.61,203.24-22.18,9.24-1.04,19.14-5.38,29.49-12.23,14.51-9.59,29.87-24.1,45.65-41.09,23.67-25.5,48.28-56.58,72.57-85.1,24.3-28.52,48.26-54.48,70.85-69.8,1.11-.75,2.3-1.51,3.58-2.24h0c13.73-7.95,35.66-14.37,63.31-19.65,41.47-7.89,95.77-13.12,154-16.38,58.23-3.26,120.37-4.54,177.49-4.54,69.19,0,130.99,1.88,169.5,4.45,62.66,4.18,105.7,15.93,135.98,28.44,15.13,6.26,27.07,12.71,36.67,18.49,9.59,5.78,16.84,10.89,22.54,14.43h0c1.43.88,3.31,2.25,5.65,4.07,9.32,7.26,25.76,21.67,45.3,39.4,29.31,26.59,65.57,60.63,95.01,88.97,14.72,14.17,27.73,26.92,37.31,36.6,4.79,4.85,8.73,8.92,11.6,12.04,1.44,1.56,2.61,2.88,3.5,3.94.44.54.81,1,1.12,1.42.3.41.54.76.72,1.11l-1.23.64,1.18-.74.07.11.03.05.03.05c2.02,3.85,4.39,5.89,6.54,7.02,2.14,1.13,4.09,1.33,5.22,1.33.34,0,.6-.01.77-.03l.19-.02h.04s.14.79.14.79l-.14-.8h0l.14.8-.14-.8.11-.02h.11c1.02-.02,2.08-.03,3.17-.03,14.45,0,34.53,1.9,56.75,4.76,33.32,4.29,71.4,10.77,102.11,16.31,15.36,2.78,28.87,5.32,39.01,7.24,5.07.96,9.3,1.77,12.5,2.37,3.19.6,5.38,1,6.28,1.13.8.13,2.62.35,5.22.63,18.23,1.99,75.31,7.38,114.42,11.04,11.19,1.04,20.92,1.94,27.84,2.59,3.46.32,6.22.57,8.12.75,1.9.17,2.93.27,2.93.27l.51.05.36.36c7.21,7.35,13.13,17.51,18.04,29.25,7.44,17.79,12.56,39.21,16.09,59.92,3.53,20.71,5.48,40.71,6.54,55.64.52,7.21.82,13.24,1,17.59.18,4.35.23,6.99.23,7.52,0,.99-.3,1.92-.79,2.76-.72,1.26-1.81,2.37-3.13,3.52-1.32,1.15-2.88,2.33-4.59,3.62l-.84-1.1.86,1.09c-1.27.99-2.6,1.99-3.95,3.1h-.01s.01,0,.01,0c-.62.49-1.25,1.28-1.84,2.3-1.04,1.78-1.95,4.23-2.68,6.88-1.11,3.98-1.84,8.41-2.29,11.82-.22,1.71-.38,3.17-.48,4.2-.05.51-.08.92-.11,1.19-.02.28-.03.42-.03.42l-1.39-.1.46-1.31s.5.18,1.37.48c3.07,1.08,10.83,3.78,18.46,6.38,3.82,1.3,7.61,2.57,10.76,3.6,3.15,1.02,5.69,1.81,6.9,2.11h0c.96.24,1.79.78,2.45,1.46,1.16,1.19,1.9,2.78,2.48,4.53.86,2.62,1.29,5.65,1.52,8.27.23,2.61.26,4.81.26,5.73v.45l-1.39-.02v-1.39c1.61,0,3.05.37,4.21,1.18.87.61,1.54,1.44,2.04,2.39.75,1.43,1.15,3.15,1.39,5.16.24,2.01.31,4.32.31,6.94,0,1.57-.29,2.91-.82,4.02-.8,1.68-2.17,2.76-3.59,3.33-1.43.59-2.91.75-4.23.75-2.27,0-4.06-.49-4.13-.5l.36-1.35,1.39-.09s.02.34.02.87c0,1.27-.11,3.77-.83,6.7-.72,2.93-2.06,6.3-4.59,9.22-.52.59-1.17,1.02-1.94,1.4-1.44.72-3.35,1.29-5.66,1.8-4.04.89-9.31,1.56-15.09,2.09-17.31,1.58-39.12,1.81-44.33,1.83v-1.39s.02,1.39.02,1.39c-.75.02-1.16.02-1.17.02v-1.39l1.3.47c-.86,2.35-2.24,4.82-3.84,7.26-4.79,7.3-11.52,14.24-11.55,14.27l-.36.37-.5.05s-44.82,4.62-91.95,9.24c-23.56,2.3-47.71,4.61-67.11,6.35-9.71.86-18.23,1.58-24.91,2.09-6.69.51-11.5.8-13.9.8-4.8,0-8.68-.98-11.75-2.47-4.62-2.24-7.39-5.62-8.98-8.42-1.6-2.8-2.05-5.03-2.07-5.13l1.36-.27-1.3.5c-9.59-24.94-23.39-59.62-47.9-91.1-24.52-31.48-59.66-59.75-112.13-72.03-17.67-4.14-37.3-6.46-59.16-6.46-9.43,0-19.27.43-29.54,1.33-11.48,1.01-22.26,2.75-32.39,5.13-36.13,8.44-63.93,24.88-85.41,44.94-32.21,30.09-50.19,68.35-60.36,99.86-5.08,15.74-8.21,29.79-10.2,40.27-1,5.24-1.71,9.59-2.24,12.82-.26,1.61-.48,2.95-.66,3.99-.1.52-.18.96-.27,1.34-.08.38-.16.68-.26.97-.69,1.94-2.01,3.44-3.58,4.54-2.36,1.65-5.29,2.51-8.07,3.01-2.78.48-5.42.59-7.2.59-1.34,0-2.18-.06-2.21-.06l.1-1.39.02,1.39-887.28,8.93-.39-.74c-8.02-14.97-16.52-33.83-26.73-54.32-15.31-30.73-34.49-65.11-61.57-95.38-27.09-30.27-62.06-56.42-109.06-70.79-14.91-4.56-31.05-7.93-48.54-9.87-9.35-1.03-18.27-1.52-26.78-1.52-25.33.01-47.02,4.31-65.58,11.36-42.4,16.12-68.55,46.62-84.14,73.15-7.79,13.26-12.92,25.52-16.11,34.45-1.59,4.47-2.7,8.1-3.4,10.61-.36,1.26-.61,2.23-.77,2.89-.08.33-.14.58-.18.75l-.05.18v.06s-1.37-.3-1.37-.3l1.38.18s-2.09,16.56-7.04,33.17c-2.48,8.32-5.67,16.65-9.75,23.02-2.05,3.18-4.32,5.88-6.9,7.82-2.57,1.94-5.49,3.12-8.66,3.11-5.6-.01-11.69-2.45-17.89-6.1-9.31-5.48-18.88-13.75-26.9-21.25-4.01-3.75-7.62-7.3-10.59-10.21-2.97-2.91-5.32-5.19-6.7-6.3-.34-.27-.62-.47-.78-.57l-.13-.08.26-.65v.69c-.2,0-.26-.04-.26-.04l.26-.65v.69c-.07,0-.39.02-.8.08-1.6.2-4.88.76-8.85,1.5-5.96,1.11-13.51,2.59-19.56,3.8-3.03.61-5.69,1.14-7.58,1.52-1.9.39-3.04.62-3.04.62l-.14.03h-55.73c-10.22.01-16.38-3.42-19.87-6.97-3.48-3.53-4.32-7.06-4.36-7.21l-.03-.16v-8.19h1.39v1.39h-6.55c-1.33.01-2.47-.38-3.32-1.01-.64-.47-1.1-1.04-1.43-1.62-.5-.86-.73-1.71-.84-2.36-.12-.65-.12-1.1-.12-1.16v-11.62h1.39"/>
  <path class="cls-4" d="M1890.59,1232.65c.13.01.9.06,2.12.06,3.28,0,14.15-.46,16.23-6.29.22-.62.6-2.93,1.08-5.85,21.52-131.81,91.17-180.41,149.8-197.37H814.77c101.86,35.21,146.06,127.27,175.56,188.73,5.16,10.75,10.05,20.93,14.68,29.63l885.59-8.91"/>
  <path class="cls-22" d="M1129.59,841.55v-1.39h513.61l-5.33-229.67,1.39-.04v1.39s-1.19.01-3.45.02c-16.94.1-93.5.7-170.74,3.65-38.62,1.48-77.41,3.54-108.99,6.42-15.78,1.43-29.76,3.08-41,4.95-5.62.93-10.55,1.92-14.67,2.97-4.11,1.04-7.42,2.15-9.75,3.27-4.77,2.3-10.83,7.06-17.65,13.66-11.95,11.54-26.29,28.69-41.19,48.1-44.72,58.25-94.46,136.93-101.05,147.41l-1.18-.74v-1.39,1.39l-1.18-.74c5.04-8.01,35.13-55.61,68.99-103.65,16.93-24.02,34.81-48.14,50.99-67.51,8.09-9.68,15.76-18.17,22.69-24.87,6.94-6.7,13.11-11.62,18.38-14.16,2.77-1.34,6.51-2.54,11.12-3.68,8.65-2.12,20.39-3.98,34.35-5.63,48.85-5.74,124.9-8.79,188.78-10.42,63.86-1.63,115.54-1.82,115.55-1.82.75-.01,1.37.6,1.39,1.35l5.36,231.1c0,.37-.13.73-.39,1s-.62.42-.99.42h-515.04c-.51,0-.97-.28-1.22-.72-.24-.44-.23-.99.04-1.41l1.18.74"/>
  <path class="cls-18" d="M2374.82,1199.3c17.69,0,186.45-17.32,197.07-18.41,1.96-2.08,11.69-12.66,14.44-20.19l1.3-.91c23.51-.04,62.23-1.75,66.06-6.18,5.2-6.02,4.73-14.7,4.72-14.79l1.75-1.43s1.56.42,3.4.42c1.69,0,3.08-.35,4.04-1.01,1.23-.85,1.83-2.26,1.83-4.32,0-9.88-1.21-12.9-5.17-12.9l-1.39-1.41c.12-6.84-1.23-16.85-4.61-17.69-5.94-1.49-36.45-12.19-37.74-12.65l-.93-1.4c.16-2.38,1.82-23.38,8.44-28.78,1.46-1.18,2.88-2.26,4.2-3.26,3.87-2.95,7.22-5.5,7.22-7.57,0-1.18-.21-10.39-1.13-23.62h-435.11c100.2,28.78,134.62,118.31,151.45,162.09l.06.23c.12.56,3.03,13.78,20.08,13.78"/>
  <path class="cls-13" d="M527.71,1209.41c21.16,0,29.51-64.05,29.59-64.69.08-.36,5.25-23.29,20.86-49.88,13.7-23.32,38.32-54.09,78.93-71.64h-280.89c5.76,7.88,11.27,15.82,11.95,21.88v3.13l-1.39,1.39h-19.45l-.23-.02s-.56-.09-1.4-.09c-3.69,0-9.89,1.54-9.89,11.82v22.05l-.04.32c-.01.05-.33,1.64.85,3.1,1.44,1.79,4.59,2.73,9.11,2.73h41.5l1.39,1.39v2.57l-1.08,1.36c-24.19,5.54-62.56,17.52-62.56,26.05v12.8l-1.33,1.39c-3,.11-6.12.77-6.7,1.4v11.51c0,.55.18,3.37,2.93,3.37h6.55l1.39,1.39v7.86c.39,1.39,3.92,11.89,21.48,11.89h55.45c4.39-.9,37.07-7.54,40.25-7.54,1.32,0,2.86,1.39,10.13,8.51,12.83,12.57,36.71,35.95,52.6,35.95"/>
  <path class="cls-38" d="M2620.07,1008.7c1.58,4.64,3.11,9.3,4.54,13.96h.02c3.22,10.45,6.03,20.91,8.27,31.22,4.55-3.32,7.95-5.78,7.95-8.47,0-.9-.18-9.63-1.12-22.75-.03-.44-.07-.89-.1-1.34-.29-3.88-.64-8.11-1.07-12.62h-18.48"/>
  <path class="cls-38" d="M2619.13,1008.7c1.59,4.64,3.11,9.3,4.55,13.96h.01c3.23,10.45,6.03,20.91,8.27,31.22,4.54-3.32,7.95-5.78,7.95-8.47,0-.9-.18-9.63-1.12-22.75-.03-.44-.07-.89-.1-1.34-.29-3.88-.64-8.11-1.07-12.62h-18.48"/>
  <path class="cls-41" d="M1056.52,807.65c2.55,3.74,5.4,6.64,8.43,8.84,8.31,6.05,18.08,6.88,27.36,5.35,18.01-2.97,34.16-14.84,34.16-14.84,0,0,80.22-102.43,109.59-144.53,16.93-24.25,16.46-42.18,13.03-53-1.24.71-2.41,1.44-3.49,2.18-59.65,40.43-130.43,157.2-189.08,196"/>
  <path class="cls-22" d="M1056.52,807.65l1.14-.78c2.48,3.62,5.21,6.4,8.11,8.5,5.73,4.17,12.18,5.74,18.75,5.75,2.52,0,5.06-.24,7.57-.65,8.78-1.45,17.2-5.1,23.41-8.39,3.1-1.65,5.65-3.21,7.41-4.35.89-.57,1.58-1.03,2.04-1.36.23-.16.41-.28.53-.37l.13-.09.04-.03.82,1.12-1.09-.86s.31-.4.91-1.16c4.45-5.7,24.74-31.67,47.35-61.15,22.6-29.47,47.54-62.47,61.29-82.15,11.31-16.22,14.68-29.43,14.68-39.48,0-4.82-.78-8.93-1.85-12.31l1.33-.42.69,1.2c-1.21.69-2.34,1.41-3.4,2.13-14.77,10-30.32,24.82-46.22,42.02-23.86,25.8-48.51,56.96-72.71,85.33-24.21,28.37-47.94,53.95-70.17,68.66l-.76-1.16,1.14-.78-1.14.78-.77-1.16c14.51-9.59,29.87-24.1,45.65-41.09,23.67-25.5,48.28-56.58,72.57-85.1,24.3-28.52,48.26-54.48,70.85-69.8,1.11-.75,2.3-1.51,3.58-2.24l1.49-.85.52,1.64c1.15,3.63,1.98,8.03,1.98,13.15,0,10.69-3.61,24.49-15.19,41.07-14.72,21.09-42.11,57.22-65.85,88.1-23.73,30.87-43.78,56.48-43.78,56.49l-.12.15-.15.11s-4.13,3.03-10.5,6.41c-6.37,3.39-15.03,7.15-24.26,8.68-2.64.44-5.32.69-8.02.69-7.01,0-14.11-1.71-20.39-6.28h.01c-3.17-2.3-6.13-5.32-8.77-9.18l-.8-1.17,1.18-.78.77,1.16"/>
  <path class="cls-26" d="M1065.48,815.13c8.31,6.05,18.08,6.88,27.36,5.35,10.5-13.44,81.11-103.93,107.93-142.37,6.92-9.92,10.46-18.4,11.99-25.45-25.14,21.01-52.64,54.12-79.36,86.3-22.55,27.13-45.63,54.9-67.92,76.17"/>
  <path class="cls-41" d="M2012.68,638.67c2.53,12.61,9.42,29.42,26.22,48.41,31.06,35.12,110.33,145.41,168.03,134.72l-.07-.11c-5.24-10.09-157.16-154.22-194.18-183.02"/>
  <path class="cls-22" d="M2012.68,638.67l1.36-.28c2.48,12.38,9.25,28.94,25.9,47.77,7.45,8.42,17.6,21.07,29.54,35.33,17.9,21.38,39.83,46.37,62.53,65.96,11.35,9.8,22.89,18.24,34.19,24.22,11.3,5.98,22.33,9.47,32.66,9.47,2.65,0,5.26-.23,7.82-.71l.25,1.37-1.18.74-.07-.11-.03-.05-.02-.05c-.09-.17-.36-.59-.78-1.12-1.63-2.1-5.38-6.17-10.67-11.62-18.55-19.09-56.33-55.48-93.38-90.12-18.52-17.32-36.86-34.21-52.53-48.29-15.66-14.08-28.67-25.36-36.45-31.42l.86-1.09,1.36-.28-1.36.28.85-1.1c9.32,7.26,25.76,21.67,45.3,39.4,29.31,26.59,65.57,60.63,95.01,88.97,14.72,14.17,27.73,26.92,37.31,36.6,4.79,4.85,8.73,8.92,11.6,12.04,1.44,1.56,2.61,2.88,3.5,3.94.44.54.81,1,1.12,1.42.3.41.54.76.72,1.11l-1.23.64,1.18-.74.07.11,1.09,1.73-2.02.38c-2.73.5-5.51.75-8.32.75-14.62-.02-30.08-6.53-45.55-16.68-23.2-15.25-46.49-38.79-66.79-61.66-20.29-22.86-37.6-45.07-48.66-57.58-16.95-19.15-23.97-36.2-26.54-49.06l-.73-3.67,2.95,2.3-.85,1.1"/>
  <path class="cls-26" d="M2182.64,809.84c-29.39-29.48-92.74-89.9-137.12-129.96.22.25.44.5.66.76,4.77,5.39,10.55,12.39,17.23,20.49,28.34,34.34,78.18,94.73,119.22,108.71M2198.83,827.05l-.04.08.3.43-.26-.51"/>
  <path class="cls-41" d="M1652.97,646.25v157.78c0,10.21,8.27,18.51,18.5,18.52,31.81.06,100.04.15,168.14.21,11.6,0,23.21,0,34.63,0h40.46c9.51,0,18.7,0,27.46-.02h4.62c11.33,0,21.84-.02,31.23-.05,19.86-.03,34.73-.09,41.84-.18,3.89-.05,7.45-.15,10.71-.3,32.71-1.53,35.41-8.29,38.12-22.36,2.35-12.28-18.08-38.36-58.32-81.23-10.57-11.26-22.52-23.68-35.77-37.3-14.4-14.8-38.67-25.61-67.66-33.49-9.45-2.56-19.39-4.82-29.66-6.8-4.81-.93-9.7-1.79-14.63-2.6-14.78-2.43-29.99-4.35-45.18-5.85-15.08-1.5-30.12-2.6-44.64-3.37-2.49-.14-4.95-.27-7.39-.38-9.99-.49-19.68-.82-28.92-1.06-11.97-.29-23.17-.4-33.24-.41-12.83,0-23.81.16-32.22.36-10.06.24-18.08,8.48-18.08,18.52"/>
  <path class="cls-41" d="M1185.95,816.71c6.59,7.52,16.29,11.55,26.28,11.47l213.72-1.75,40.29-.34,27.17-.22,88.37-.72,17.09-.14c13.71-.11,24.8-11.21,24.89-24.93l1.02-139.91.02-3.1c.1-13.89-11.15-25.24-25.01-25.2-85.88.25-147.15,1.93-190.83,4.15-36.18,1.84-60.3,4.05-76.34,6.09-18.3,2.35-26.08,4.51-29.28,5.71-1.65.63-2.07.99-2.07.99-4.82,1.93-11.16,6.98-18.4,14.09-5.14,5.06-10.74,11.16-16.58,17.94-32.99,38.3-73.61,98.14-82.78,112.62-5.91,9.33-2.78,17.31,2.44,23.25"/>
  <path class="cls-22" d="M1081.21,1209.61l-.02-1.39,586.05-8.34.02,1.39-1.39-.07s.03-.66.09-1.94c.91-19.08,8.19-174.13,8.19-246.3,0-7.69-.08-14.44-.26-19.97-.18-5.53-.47-9.85-.85-12.64-2.36-17.13-7.7-35.51-13.47-50.15-2.88-7.32-5.88-13.71-8.64-18.52-1.38-2.41-2.7-4.42-3.91-5.94-1.19-1.52-2.29-2.55-3.07-2.99-.43-.24-.69-.68-.7-1.17l-5.37-231.09,1.39-.04v1.39s-1.19.01-3.45.02c-16.94.1-93.5.7-170.74,3.65-38.62,1.48-77.41,3.54-108.99,6.42-15.78,1.43-29.76,3.08-41,4.95-5.62.93-10.55,1.92-14.67,2.97-4.11,1.04-7.42,2.15-9.75,3.27-4.77,2.3-10.83,7.06-17.65,13.66-11.95,11.54-26.29,28.69-41.19,48.1-44.72,58.25-94.46,136.93-101.05,147.41h0c-.49.77-.74,1.17-.74,1.17-.24.4-.67.64-1.13.66h-.14c-1.53.07-15.29.9-30.05,7.51-7.38,3.3-15.01,8.05-21.52,14.84-6.51,6.8-11.92,15.63-14.89,27.23-2.8,10.93-5.51,27.39-7.5,47.55-1.99,20.16-3.29,44.04-3.28,69.9,0,62.64,7.58,136.89,30.98,197.96l-1.3.5-.02-1.39.02,1.39-1.3.5c-23.58-61.59-31.16-136.09-31.16-198.96,0-25.95,1.29-49.92,3.29-70.18,2.01-20.26,4.72-36.8,7.58-47.96,3.18-12.45,9.13-21.95,16.24-29.14,10.67-10.8,23.9-16.4,34.44-19.34,10.55-2.93,18.44-3.19,18.52-3.19l.04,1.39-1.18-.73s.25-.41.74-1.19c5.04-8.01,35.13-55.61,68.99-103.65,16.93-24.02,34.81-48.14,50.99-67.51,8.09-9.68,15.76-18.17,22.69-24.87,6.94-6.7,13.11-11.62,18.38-14.16,2.77-1.34,6.51-2.54,11.12-3.68,8.65-2.12,20.39-3.98,34.35-5.63,48.85-5.74,124.9-8.79,188.78-10.42,63.86-1.63,115.54-1.82,115.55-1.82.75-.01,1.37.6,1.39,1.35l5.36,231.1-1.38.03.68-1.21c1.31.76,2.55,2,3.88,3.68,2.32,2.92,4.83,7.2,7.42,12.48,7.73,15.82,16.01,40.61,19.17,63.47.41,2.97.69,7.35.88,12.93.18,5.57.26,12.35.26,20.06,0,77.13-8.28,248.37-8.28,248.38-.04.73-.64,1.31-1.37,1.32l-586.05,8.34c-.58.01-1.11-.35-1.32-.89l1.3-.5"/>
  <path class="cls-22" d="M1639.27,610.46v-1.39s2.22-.02,6.28-.02c18.6,0,75.69.26,134.19,3.06,29.26,1.41,58.87,3.45,84.21,6.42,12.68,1.49,24.28,3.2,34.26,5.2,9.98,1.99,18.32,4.25,24.51,6.86,26.34,11.13,48.08,20.38,77.24,46.87,29.16,26.49,65.79,70.15,122.43,150.29.84,1.19,1.23,2.53,1.23,3.83,0,1.73-.68,3.37-1.84,4.61-1.16,1.24-2.84,2.06-4.77,2.08l-472.37,4.66c-.76.01-1.39-.6-1.41-1.35l-5.36-231.09c0-.37.14-.74.4-1,.26-.27.61-.42.99-.42v1.39l1.39-.04,5.33,229.72,471-4.65c1.16-.02,2.09-.48,2.78-1.2.68-.73,1.08-1.71,1.08-2.71,0-.75-.21-1.51-.72-2.22-56.6-80.07-93.15-123.61-122.04-149.84-28.9-26.23-50.09-35.21-76.46-46.36-5.89-2.5-14.09-4.74-23.96-6.71-34.57-6.91-89.52-10.58-139.83-12.5-50.32-1.92-96.04-2.12-112.29-2.12-2.02,0-3.59,0-4.65,0s-1.62.01-1.62.01v-1.39s1.38-.04,1.38-.04l-1.39.04"/>
  <path class="cls-22" d="M858.61,934.29l.02-1.39,64.76.75h.14c3.06,0,5.91-1.17,8.03-3.05,2.13-1.88,3.5-4.45,3.68-7.26l3.1-49.64c0-.2,0-.39,0-.58,0-2.53-1.03-4.72-2.77-6.33-1.73-1.6-4.18-2.6-7.01-2.6-.13,0-.27,0-.41,0l-63.83,2.17c-2.74.1-5.33,1.25-7.29,3.06-1.95,1.81-3.25,4.24-3.47,6.84l-3.97,46.9c-.02.28-.03.55-.03.82,0,2.48.96,4.67,2.57,6.27,1.61,1.6,3.86,2.61,6.49,2.64l-.04,2.78c-3.33-.04-6.29-1.34-8.41-3.45s-3.39-5.03-3.39-8.24c0-.35.01-.7.04-1.05l3.97-46.91c.29-3.37,1.94-6.41,4.36-8.64,2.41-2.23,5.61-3.67,9.07-3.79l63.84-2.18c.16,0,.33-.01.5-.01,3.49,0,6.63,1.24,8.9,3.34,2.27,2.09,3.67,5.06,3.66,8.37,0,.25,0,.5-.02.76l-3.1,49.63c-.23,3.62-1.99,6.86-4.61,9.17-2.61,2.32-6.11,3.75-9.87,3.75h-.17l-64.77-.75.02-1.39"/>
  <path class="cls-17" d="M2559.51,875.49c7.6,13.81,18.97,35.35,30.68,60.82,10.11,21.99,20.47,46.93,28.93,72.39h18.48c-1.93-21.01-5.49-47.81-11.94-72.39-6.11-23.36-14.84-44.72-27.27-57.24,0,0-16.51-1.51-38.9-3.58"/>
  <path class="cls-41" d="M360.55,1002.35c1.05,2.08,2.33,4.27,3.74,6.48,2.05-51.54,17.65-87.78,29.42-108.1-15.65,3.63-26.08,7.33-28.39,11.09-9.53,15.49-11.91,76.24-4.77,90.53"/>
  <path class="cls-22" d="M360.55,1002.35l.63-.31c1.02,2.05,2.29,4.22,3.7,6.41l-.59.38-.69-.03c2.05-51.66,17.69-88.02,29.51-108.41l.6.34.16.68c-7.81,1.81-14.3,3.64-19.11,5.47-2.4.91-4.38,1.83-5.87,2.73-1.5.9-2.5,1.79-2.98,2.58-1.38,2.24-2.65,5.58-3.75,9.64-3.29,12.2-5.07,30.95-5.06,47.55,0,7.21.33,14.02,1.01,19.71s1.72,10.28,3.07,12.95l-.63.31-.62.31c-1.47-2.96-2.5-7.63-3.2-13.4-.69-5.77-1.02-12.63-1.02-19.88,0-11.14.78-23.21,2.3-33.69.76-5.24,1.69-10.09,2.81-14.22,1.12-4.14,2.41-7.57,3.91-10.01.68-1.09,1.84-2.07,3.44-3.04,2.4-1.45,5.8-2.85,10.08-4.24,4.27-1.39,9.42-2.76,15.31-4.12l1.56-.36-.81,1.38c-11.72,20.24-27.28,56.37-29.32,107.77l-.09,2.21-1.19-1.86c-1.43-2.22-2.72-4.43-3.78-6.54l.62-.31"/>
  <path class="cls-26" d="M1772.82,629.22l169.34,193.53h4.62c11.33,0,21.84-.02,31.23-.05,19.86-.03,34.73-.09,41.84-.18,3.89-.05,7.45-.15,10.71-.3l-167.93-183.78c-14.78-2.43-29.99-4.35-45.18-5.85-15.08-1.5-30.12-2.6-44.64-3.37"/>
  <path class="cls-26" d="M1703.27,627.37l170.97,195.4h40.46l-178.19-194.99c-11.97-.29-23.17-.4-33.24-.41"/>
  <path class="cls-26" d="M1332.61,642.11l160.79,183.76,88.37-.72-172.82-189.13c-36.18,1.84-60.3,4.05-76.34,6.09"/>
  <path class="cls-26" d="M1282.86,662.9l143.08,163.53,40.29-.34-162.9-178.27c-1.65.63-2.07.99-2.07.99-4.82,1.93-11.16,6.98-18.4,14.09"/>
  <path class="cls-20" d="M386.41,916.29l670.11-93.52c2-2.16,4-4.32,5.96-6.44-2.24-1.85-4.37-4.1-6.33-6.78-10.17,6.57-20.05,10.85-29.58,11.94-31.58,3.57-116.15,12.5-203.25,22.18-87.09,9.67-176.74,20.1-218.37,26.64-31.58,4.97-72.16,10.1-110.94,15.39-38.77,5.3-75.74,10.77-99.98,16.39-.11.03-.23.05-.34.08-2.33,4.09-4.8,8.8-7.28,14.12"/>
  <path class="cls-35" d="M393.68,902.17c.11-.03.23-.05.34-.08,24.24-5.62,61.21-11.09,99.98-16.39,38.78-5.29,79.36-10.42,110.94-15.39,41.63-6.54,131.28-16.97,218.37-26.64,87.1-9.68,171.67-18.61,203.25-22.18,9.53-1.09,19.41-5.37,29.58-11.94-.26-.36-.52-.73-.78-1.11l-.02-.03c-10.05,6.49-19.73,10.65-28.93,11.69-63.14,7.15-338.3,35.73-421.68,48.84-62.7,9.86-161.1,20.38-210.1,31.58l-.33.56c-.2.36-.41.72-.62,1.09"/>
  <path class="cls-33" d="M2572.78,900.48c-5.02-9.8-9.55-18.25-13.22-24.91-22.23-2.08-50.07-4.7-73.29-6.94-11.74-1.13-22.3-2.16-30.36-2.98-4.03-.41-7.43-.76-10.04-1.05-2.62-.28-4.43-.5-5.34-.64-1.33-.2-4.75-.84-9.91-1.82-18.05-3.42-57.14-10.91-97.98-17.55-20.42-3.32-41.28-6.42-60.14-8.7-18.86-2.27-35.75-3.71-48.18-3.71h-.01c-1.04,0-2.04.01-3.01.03-.21.03-.69.08-1.36.08-1.46,0-3.88-.26-6.52-1.65-2.45-1.28-5.06-3.54-7.22-7.3-2.41.39-4.86.58-7.33.58-2.67-.01-5.36-.23-8.08-.64,8.79,9.89,14.42,16.45,16.15,18.27,7.04,7.38,219.13,38.31,365.85,58.93M2198.83,827.05l.26.51-.3-.43.04-.08M2606.41,889.02c-2.4-3.68-4.96-6.98-7.69-9.81-.06-.01-.12-.01-.19-.02,2.81,2.85,5.43,6.16,7.88,9.83"/>
  <path class="cls-21" d="M2617.1,906.68c-4.86-11.63-10.71-21.65-17.75-28.81,0,0-16.51-1.52-38.89-3.61-44.71-4.18-112.86-10.62-119.72-11.67-10.14-1.56-159.13-31.8-216.44-31.8-1.08,0-2.12.01-3.14.03,0,0-.46.08-1.23.08-2.45,0-8.07-.83-12.28-7.82l-.46.09c-.33.06-.66.11-1,.17,2.16,3.76,4.77,6.02,7.22,7.3,2.64,1.39,5.05,1.65,6.52,1.65.67,0,1.14-.05,1.36-.08.97-.02,1.98-.03,3.01-.03h.01c12.43,0,29.32,1.44,48.18,3.71,18.87,2.28,39.72,5.38,60.14,8.7,40.84,6.64,79.93,14.13,97.98,17.55,5.16.98,8.58,1.62,9.91,1.82.91.14,2.72.36,5.34.64,2.61.29,6.02.64,10.04,1.05,8.06.82,18.62,1.85,30.36,2.98,23.22,2.24,51.05,4.86,73.29,6.94-.02-.02-.03-.05-.05-.08,22.39,2.07,38.9,3.58,38.9,3.58.04.04.08.08.12.12.07,0,.13,0,.19.02,2.73,2.83,5.29,6.13,7.69,9.81,3.43,5.16,6.51,11.05,9.27,17.46.48.07.95.14,1.42.2"/>
  <path class="cls-25" d="M2018.36,659.41c-3.57-7.37-5.72-14.09-6.93-19.96-2.11-1.63-3.81-2.85-5-3.59h0c-5.82-3.61-13.01-8.68-22.52-14.41-14.25-8.58-33.69-18.64-61.28-27.35-27.58-8.71-63.31-16.06-110.12-19.18-38.41-2.57-100.17-4.45-169.31-4.45-76.1,0-161.14,2.28-233.85,8.47-36.35,3.1-69.62,7.16-97.12,12.4-26.85,5.11-48.22,11.36-61.48,18.79.82,2.88,1.43,6.21,1.6,9.96,3.34-3.33,6.36-6.43,9.34-9.64,15.18-16.35,227.34-35.75,409.51-35.75,96.5,0,184.58,5.44,230.5,19.68,37.9,11.74,78.19,36.04,116.67,65.03"/>
  <path class="cls-34" d="M2011.42,639.45c-.04-.17-.07-.34-.11-.51l-.31-1.56c-1.56-1.17-2.85-2.08-3.86-2.7-23.04-14.3-69.48-52.81-194.56-61.15-38.45-2.56-100.25-4.45-169.4-4.45-151.11,0-337.45,9.01-392.87,39.69l.09.28c.11.35.22.71.33,1.08,13.26-7.43,34.63-13.68,61.48-18.79,27.5-5.24,60.77-9.3,97.12-12.4,72.71-6.19,157.75-8.47,233.85-8.47,69.14,0,130.9,1.88,169.31,4.45,46.81,3.12,82.54,10.47,110.12,19.18,27.59,8.71,47.03,18.77,61.28,27.35,9.51,5.73,16.7,10.8,22.52,14.41h0c1.19.74,2.89,1.96,5,3.59"/>
  <path class="cls-41" d="M1064.36,814.29c21.68-23.37,40.73-43.72,57.56-61.54,3.83-4.59,7.66-9.2,11.48-13.79,26.72-32.18,54.22-65.29,79.36-86.3-.61,2.82-1.55,5.87-2.89,9.15,18.9-18.88,30.6-29.99,39.73-39v-.61c0-4.05-.55-7.59-1.35-10.62-.65.4-1.28.81-1.88,1.22-14.77,10-30.32,24.82-46.22,42.02-23.86,25.8-48.51,56.96-72.71,85.33-23.78,27.86-47.09,53.04-68.98,67.86,1.85,2.51,3.83,4.59,5.9,6.28"/>
  <path class="cls-21" d="M1062.48,816.33c.63-.68,1.27-1.36,1.89-2.04-2.07-1.69-4.05-3.77-5.9-6.28,21.89-14.82,45.2-40,68.98-67.86,24.2-28.37,48.85-59.53,72.71-85.33,15.9-17.2,31.45-32.02,46.22-42.02.6-.41,1.23-.82,1.88-1.22.8,3.03,1.35,6.57,1.35,10.62v.61c.93-.92,1.84-1.83,2.73-2.72-.17-3.75-.78-7.08-1.6-9.96-.11-.37-.22-.73-.33-1.08l-.09-.28c-.42.23-.83.46-1.23.7-1.24.71-2.41,1.44-3.49,2.18-59.65,40.43-130.43,157.2-189.08,196-.39.26-.78.51-1.17.76l.02.03c.26.38.52.75.78,1.11,1.96,2.68,4.09,4.93,6.33,6.78"/>
  <path class="cls-15" d="M1121.93,752.75c40.66-43.06,68.22-71.23,87.95-90.94,1.34-3.28,2.28-6.33,2.89-9.15-25.14,21.01-52.64,54.12-79.36,86.3-3.82,4.59-7.65,9.2-11.48,13.79"/>
  <path class="cls-41" d="M2198.85,821.14h.01c1.91,0,3.79-.12,5.64-.36-1.78-2.21-5.37-6.09-10.32-11.19-18.55-19.09-56.33-55.48-93.38-90.12-18.52-17.32-36.86-34.21-52.53-48.29-13.75-12.36-25.44-22.55-33.36-28.96,1.6,6.22,4.28,13.33,8.62,21.13,8.46,6.5,16.82,13.2,25.04,20.03-.82-.95-1.62-1.87-2.4-2.74-.22-.26-.45-.51-.66-.76,4.49,4.05,9.18,8.32,14,12.74,27.07,23.19,52.3,47.39,73.99,69.38,19.62,18.76,37.18,35.86,49.12,47.84-2-.68-4.03-1.47-6.07-2.37,4.1,4.5,7.84,8.66,11.2,12.43,3.77.81,7.46,1.24,11.08,1.24"/>
  <path class="cls-21" d="M2198.86,823.92c2.47,0,4.92-.19,7.33-.58.33-.06.66-.11,1-.17l.46-.09c-.25-.41-.48-.83-.72-1.28l-.07-.11c-5.24-10.09-157.16-154.22-194.18-183.02-.59-.46-1.15-.89-1.68-1.29l.31,1.56c.04.17.07.34.11.51,1.21,5.87,3.36,12.59,6.93,19.96,1.73,1.3,3.47,2.63,5.19,3.94-4.35-7.8-7.02-14.91-8.62-21.13,7.92,6.41,19.61,16.6,33.36,28.96,15.66,14.08,34,30.97,52.53,48.29,37.04,34.64,74.82,71.03,93.38,90.12,4.95,5.1,8.55,8.98,10.32,11.19-1.86.24-3.74.36-5.64.36h-.01c-3.62,0-7.32-.43-11.08-1.24,1.04,1.16,2.05,2.29,3.01,3.38,2.72.41,5.41.63,8.08.64"/>
  <path class="cls-15" d="M2199.09,827.56l-.26-.51-.04.08.3.43M2182.64,809.84c-11.95-11.98-29.51-29.08-49.12-47.84,16.71,16.95,31.33,32.59,43.05,45.47,2.04.9,4.07,1.69,6.07,2.37M2059.52,692.62c-4.82-4.42-9.51-8.69-14-12.74.22.25.44.5.66.76.77.87,1.57,1.79,2.4,2.74,3.68,3.06,7.32,6.14,10.94,9.24"/>
  <path class="cls-39" d="M2615.68,906.48c-2.77-6.41-5.84-12.3-9.27-17.46-2.45-3.67-5.07-6.98-7.88-9.83-.04-.04-.08-.08-.12-.12,0,0-16.51-1.51-38.9-3.58.02.03.03.06.05.08,3.66,6.66,8.2,15.11,13.22,24.91,15.09,2.13,29.49,4.14,42.9,6"/>
  <path class="cls-41" d="M362.8,919.59l21.97-3.07c2.55-5.56,5.11-10.48,7.54-14.74-7.12,1.69-13.08,3.39-17.56,5.1-2.4.91-4.38,1.83-5.87,2.73-1.5.9-2.5,1.79-2.98,2.58-1.12,1.82-2.16,4.34-3.1,7.4"/>
  <path class="cls-21" d="M362.05,919.69l.75-.1c.94-3.06,1.98-5.58,3.1-7.4.48-.79,1.48-1.68,2.98-2.58,1.49-.9,3.47-1.82,5.87-2.73,4.48-1.71,10.44-3.41,17.56-5.1-2.43,4.26-4.99,9.18-7.54,14.74l1.63-.23c2.48-5.32,4.95-10.03,7.28-14.12.21-.37.42-.73.62-1.09l.33-.56c-.31.07-.62.14-.93.21-15.65,3.63-26.08,7.33-28.39,11.09-1.21,1.96-2.29,4.65-3.26,7.87"/>
  <path class="cls-38" d="M2510.36,1109.8v42.64s.54,1.39,2.04,2.67c2.2,1.88,4.95,2.04,6.16,2.09,0,0,39.01,1.69,70.22,3.96,8.42-.04,60.76-.61,65.97-6.64,4.29-4.96,4.98-11.48,5.06-14.34.04-.9,0-1.45,0-1.45,0,0,11.02,2.99,11.02-6.25s-.88-14.15-6.34-14.28h-.22s.28-15.92-4.84-18.74c-.27-.15-.53-.26-.82-.33-5.95-1.49-37.62-12.61-37.62-12.61,0,0,17.87,17.88-102.84,15.5,0,0-2.25.14-4.32,1.4h-.02c-1.8,1.09-3.46,3-3.46,6.38"/>
  <path class="cls-5" d="M2513.83,1103.42c95.22,8.33,131.7,2.35,145.6-3.96-.27-.15-.53-.26-.82-.33-5.95-1.49-37.62-12.61-37.62-12.61,0,0,17.87,17.88-102.84,15.5,0,0-2.25.14-4.32,1.4"/>
  <path class="cls-22" d="M2510.36,1124.81v17.39c46.33,2.54,121.24,5.19,149.45-2.02.04-.9,0-1.45,0-1.45,0,0,11.02,2.99,11.02-6.25s-.88-14.15-6.34-14.28c-3.6,3.41-27.64,9.22-154.13,6.61"/>
  <path class="cls-17" d="M365.71,1090.9h41.5s37.92,1.97,44.47,1.97,16.08-2.37,16.67-15.73c.1-2.33-.29-4.54-1.04-6.61-3.47-9.81-14.44-16.36-14.44-16.36l-64.72-5.96s-.5-.21-1.39-.57v.57h-19.45s-9.37-1.58-12.13,7.39c-.5,1.57-.78,3.45-.78,5.71v22.05s-1.79,7.54,11.31,7.54"/>
  <path class="cls-22" d="M365.71,1090.9v-1.39h41.57s.59.03,1.64.09c3.67.19,12.95.66,22.02,1.08,4.53.22,9.01.42,12.72.56,3.7.15,6.64.25,8.02.25,3.11,0,6.86-.59,9.78-2.62,1.46-1.01,2.74-2.37,3.72-4.27.97-1.9,1.64-4.34,1.79-7.52,0-.21.01-.43.01-.64,0-1.91-.35-3.71-.97-5.44v-.02s0,0,0,0c-1.61-4.56-5.06-8.52-8.14-11.29-1.54-1.38-2.98-2.48-4.02-3.22-.53-.37-.95-.65-1.24-.84-.15-.09-.26-.17-.34-.21l-.08-.05-.02-.02.71-1.19-.13,1.39-64.92-5.99-.2-.08s-.12-.05-.36-.15c-.23-.09-.58-.23-1.02-.41l.52-1.29h1.39v1.96h-20.96l-.11-.02.07-.46-.07.46.07-.46-.07.46s-.57-.09-1.4-.09c-1.26,0-3.17.21-4.9,1.11-.87.45-1.7,1.07-2.43,1.93-.74.87-1.38,1.99-1.84,3.48v.02c-.46,1.4-.72,3.13-.72,5.28v22.21l-.04.16h-.02s.02,0,.02,0h0s-.02,0-.02,0h.02c-.01.06-.04.27-.04.58,0,.37.05.87.24,1.4.31.79.87,1.67,2.3,2.45,1.42.78,3.76,1.41,7.46,1.41v2.78c-2.68,0-4.81-.3-6.52-.82-2.57-.76-4.21-2.06-5.14-3.47-.93-1.4-1.12-2.81-1.12-3.75,0-.69.1-1.14.12-1.22l1.35.33h-1.39v-22.05c0-2.37.29-4.39.84-6.13h0c.56-1.81,1.39-3.29,2.38-4.45,1.48-1.75,3.3-2.76,4.99-3.32,1.71-.57,3.3-.7,4.46-.7,1.09,0,1.8.12,1.86.13l-.23,1.37v-1.39h19.45v1.39h-1.38v-2.64l1.91.78c.89.37,1.4.58,1.4.58l-.54,1.28.13-1.38,65.03,5.99.27.16c.06.03,2.86,1.71,6.14,4.66,3.27,2.95,7.03,7.18,8.9,12.42h0c.72,1.99,1.14,4.13,1.14,6.38,0,.25,0,.51-.02.76h0c-.15,3.51-.9,6.36-2.09,8.67-1.77,3.47-4.54,5.62-7.44,6.83-2.91,1.22-5.95,1.56-8.53,1.56-1.7,0-5.28-.12-9.77-.3-13.44-.56-34.77-1.67-34.77-1.67l.07-1.39v1.39h-41.5v-1.39"/>
  <path class="cls-38" d="M335.54,1136.36v11.62s0,4.76,4.32,4.76h6.55v8.04s3.03,13.1,22.87,13.1h55.59s36.94-7.55,40.11-7.55c.27,0,.79.32,1.52.92,1.98-3.24,1.87-9.25,1.87-9.25.05-1.39.05-2.74.01-4.08-.22-6.65-1.63-12.56-3.51-17.62-4.76-12.71-12.6-19.99-12.6-19.99,0,0-7.32-.92-20.9-1.69,0,0-.05,0-.16-.01-1.87-.1-3.84-.2-5.94-.29-1.5-.07-2.87-.28-4.12-.6-13.44-3.49-13.94-20.25-13.94-20.25l-.02.02c-1.14.25-56.65,13.09-63.02,25.19-.39.74-.6,1.47-.6,2.2v12.8s-8.03.3-8.03,2.68"/>
  <path class="cls-5" d="M344.16,1118.68l.1.02s11.52,17.45,108-2.39c0,0-7.32-.92-20.9-1.69,0,0-.05,0-.16-.01-1.87-.1-3.84-.2-5.94-.29-1.5-.07-2.87-.28-4.12-.6-13.44-3.49-13.94-20.25-13.94-20.25l-.02.02c-1.14.25-56.65,13.09-63.02,25.19"/>
  <path class="cls-37" d="M390.63,1110.15c8.88,1.43,21.65,2.74,30.52,3.57-13.44-3.49-13.94-20.25-13.94-20.25l-.02.02c-.78.34-31.25,14.31-16.56,16.66"/>
  <path class="cls-22" d="M335.54,1136.36v11.62s0,4.76,4.32,4.76h6.55v1.75c39.76,9.68,121.96-.57,121.96-.57h.01c-.22-6.65-1.63-12.56-3.51-17.62-140.68,8.88-121.3-2.62-121.3-2.62,0,0-8.03.3-8.03,2.68"/>
  <path class="cls-39" d="M465.79,1070.42c-1.68-4.32-4.98-8.06-7.93-10.72-1.54-1.38-2.98-2.48-4.02-3.22-.53-.37-.95-.65-1.24-.84-.07-.04-.13-.08-.18-.11l-64.33-5.93h-20.9l-.11-.02s-.57-.09-1.4-.09h-.02c-1.26,0-3.16.21-4.88,1.11-.87.45-1.7,1.07-2.43,1.93-.74.87-1.38,1.99-1.84,3.48,14.31,4.28,44.38,9.57,106.88,14.24.81.06,1.61.12,2.4.17"/>
  <path class="cls-21" d="M467.3,1070.53c-3.47-9.81-14.44-16.36-14.44-16.36l-64.72-5.96s-.5-.21-1.39-.57v.57h-19.45s-.64-.11-1.63-.11c-2.81,0-8.46.87-10.5,7.5.42.14.87.27,1.33.41.46-1.49,1.1-2.61,1.84-3.48.73-.86,1.56-1.48,2.43-1.93,1.72-.9,3.62-1.11,4.88-1.11h.02c.83,0,1.38.09,1.4.09l.11.02h20.9l64.33,5.93c.05.03.11.07.18.11.29.19.71.47,1.24.84,1.04.74,2.48,1.84,4.02,3.22,2.95,2.66,6.25,6.4,7.93,10.72.51.04,1.02.08,1.52.11"/>
  <path class="cls-36" d="M2590.2,935.64c10.11,22.2,20.47,47.36,28.93,73.06h18.48c-1.93-21.21-5.49-48.25-11.94-73.06h-35.48"/>
  <path class="cls-42" d="M2631.96,1053.88c.27-.21.55-.4.81-.6,4.13-3.02,7.14-5.35,7.14-7.87,0-.9-.18-9.63-1.12-22.75h-15.09c3.23,10.45,6.03,20.91,8.27,31.22"/>
  <path class="cls-9" d="M2010.36,718.63c-10.57-11.26-22.52-23.68-35.77-37.3-14.4-14.8-38.67-25.61-67.66-33.49-9.45-2.56-19.39-4.82-29.66-6.8-4.81-.93-9.7-1.79-14.63-2.6l33.79,36.99c56.15,12.95,92.52,30.22,113.93,43.2M1800.3,660.63l-27.49-31.41c-2.49-.14-4.95-.27-7.39-.38-9.99-.49-19.68-.82-28.92-1.06l27.8,30.42c12.51.6,24.51,1.42,36,2.43M1652.97,658.7c21.83-1.12,42.55-1.64,62.17-1.64,4.8,0,9.52.03,14.19.09l-26.06-29.78c-12.83,0-23.81.16-32.22.36-10.06.24-18.08,8.48-18.08,18.52v12.45"/>
  <path class="cls-45" d="M1896.43,675.43l-33.79-36.99c-14.78-2.43-29.99-4.35-45.18-5.85-15.08-1.5-30.12-2.6-44.64-3.37l27.49,31.41c37.05,3.26,68.91,8.52,96.12,14.8"/>
  <path class="cls-45" d="M1764.3,658.2l-27.8-30.42c-11.97-.29-23.17-.4-33.24-.41l26.06,29.78c12.08.16,23.74.52,34.98,1.05"/>
  <path class="cls-9" d="M1266.29,680.84c7.34-.5,17.42-1.17,30.51-2.02l-13.93-15.92c-5.14,5.06-10.74,11.16-16.58,17.94M1329.75,676.73c9.54-.59,20.01-1.23,31.47-1.92l-28.61-32.7c-18.3,2.35-26.08,4.51-29.28,5.71l26.42,28.91M1440.16,670.19c50.03-2.85,111.11-6.2,184.61-10.02l.02-3.1c0-.06,0-.11,0-.17,0-13.78-11.18-25.03-24.94-25.03h-.08c-85.88.25-147.15,1.93-190.83,4.15l31.21,34.17"/>
  <path class="cls-45" d="M1361.23,674.81c22.45-1.36,48.68-2.9,78.94-4.62l-31.21-34.17c-36.18,1.84-60.3,4.05-76.34,6.09l28.61,32.7"/>
  <path class="cls-45" d="M1296.8,678.82c9.4-.61,20.36-1.3,32.96-2.09l-26.42-28.91c-1.65.63-2.07.99-2.07.99-4.82,1.93-11.16,6.98-18.4,14.09l13.93,15.92"/>
  <path class="cls-6" d="M1537.32,916.34c0,10.51,18.61,19.02,41.56,19.02s41.56-8.51,41.56-19.02-18.61-19.01-41.56-19.01-41.56,8.51-41.56,19.01"/>
  <path class="cls-29" d="M1524.14,919.41c2.15,1.84,15.95.92,15.95.92,61.65-9.51,76.37,3.99,76.37,3.99h24.03s3.88-2.15,3.88-7.67c0-1.27-.2-2.39-.52-3.36-1.05-3.28-3.36-4.92-3.36-4.92-59.4-9.51-94.88,1.23-97.33,1.23-2.08,0-15.77,5.7-18.66,8.57-.53.52-.69.96-.36,1.24"/>
  <path class="cls-7" d="M1524.5,918.17c14.55-3.23,36.8-4.63,45.33-8.14,2.4-.99,7.37-1.38,13.75-1.38,17.58,0,45.84,2.97,60.27,4.64-1.05-3.28-3.36-4.92-3.36-4.92-18.23-2.92-34.21-3.93-47.67-3.93-30.4,0-47.96,5.16-49.66,5.16-2.08,0-15.77,5.7-18.66,8.57"/>
</svg>